<?xml version="1.0" encoding="utf-8"?><!DOCTYPE svg PUBLIC "-//W3C//DTD SVG 1.1//EN" "http://www.w3.org/Graphics/SVG/1.1/DTD/svg11.dtd"><svg version="1.1" xmlns="http://www.w3.org/2000/svg" xmlns:xlink="http://www.w3.org/1999/xlink" x="0" y="0" width="267.017360" height="130.000000"><g transform="scale(3.000000 3.000000)"><g
   id="White_green_border">
	<path
   fill="rgb(40,92,77)"
   stroke="rgb(40,92,77)"
   stroke-width="0.42"
   d="M37.177,40.42c0,1.362-1.146,2.466-2.561,2.466H2.912   c-1.415,0-2.562-1.104-2.562-2.466V2.816c0-1.362,1.147-2.466,2.562-2.466h31.704c1.415,0,2.561,1.104,2.561,2.466   C37.177,2.816,37.177,40.42,37.177,40.42z"
   id="path121096" />
</g>


<g
   id="Tree_Green">
	<path
   fill="rgb(255,255,255)"
   d="M26.844,14.742"
   id="path121157" />
	<path
   fill="rgb(255,255,255)"
   d="M24.062,8.639"
   id="path121159" />
	<g
   id="g121161">
		<g
   id="g121163">
			<g
   id="g121165">
				<g
   id="g121167">
					<path
   fill="rgb(255,255,255)"
   d="M19.017,4.732c-5.744,0-7.774,8.934-9.666,16.118c-0.68-0.691-2.786-2.787-2.787-2.786       c-0.422-0.418-0.908-0.283-1.207,0.009c-0.297,0.3-0.342,0.854,0,1.189c0.018,0.017,2.851,2.841,3.83,3.818       c0.271,0.266,0.66,0.419,1.049,0.19c0.406-0.248,0.462-0.688,0.471-0.688C14.062,7.542,17.063,6.42,19.011,6.42       c1.637,0,3.522,1.211,3.522,3.632c2.446,0,3.976,3.208,2.009,5.184c1.63,0.788,2.356,1.759,2.356,2.983       c0,1.23-1.029,2.483-2.528,2.479c-1.488,0-2.244-0.957-3.405-0.958c-0.525,0-0.845,0.422-0.845,0.841v3.039h-2.189v-3.027       c-0.005-0.474-0.354-0.846-0.789-0.846c-0.007,0-0.188,0.003-0.182,0.01l-2.933,0.365c-0.356,0.048-0.682,0.435-0.682,0.833       c0,0.466,0.38,0.85,0.901,0.843c0.063,0,0.152,0,0.146-0.009c-0.007,0,1.854-0.236,1.854-0.236s0,2.986,0,2.996       c0,0.383,0.433,0.752,0.817,0.754h3.896c0.453,0,0.846-0.393,0.846-0.853v-2.736c0.815,0.499,1.948,0.692,2.532,0.692       c2.185,0,4.271-1.719,4.261-4.237c-0.01-2.289-1.755-3.427-1.755-3.427c1.027-2.731-0.632-5.368-2.782-6.104       C23.285,5.822,20.877,4.732,19.017,4.732z"
   id="path121169" />
				</g>
				<g
   id="g121171">
					<path
   fill="rgb(255,255,255)"
   d="M19.017,4.732c-5.744,0-7.774,8.934-9.666,16.118c-0.68-0.691-2.786-2.787-2.787-2.786       c-0.422-0.418-0.908-0.283-1.207,0.009c-0.297,0.3-0.342,0.854,0,1.189c0.018,0.017,2.851,2.841,3.83,3.818       c0.271,0.266,0.66,0.419,1.049,0.19c0.406-0.248,0.462-0.688,0.471-0.688C14.062,7.542,17.063,6.42,19.011,6.42       c1.637,0,3.522,1.211,3.522,3.632c2.446,0,3.976,3.208,2.009,5.184c1.63,0.788,2.356,1.759,2.356,2.983       c0,1.23-1.029,2.483-2.528,2.479c-1.488,0-2.244-0.957-3.405-0.958c-0.525,0-0.845,0.422-0.845,0.841v3.039h-2.189v-3.027       c-0.005-0.474-0.354-0.846-0.789-0.846c-0.007,0-0.188,0.003-0.182,0.01l-2.933,0.365c-0.356,0.048-0.682,0.435-0.682,0.833       c0,0.466,0.38,0.85,0.901,0.843c0.063,0,0.152,0,0.146-0.009c-0.007,0,1.854-0.236,1.854-0.236s0,2.986,0,2.996       c0,0.383,0.433,0.752,0.817,0.754h3.896c0.453,0,0.846-0.393,0.846-0.853v-2.736c0.815,0.499,1.948,0.692,2.532,0.692       c2.185,0,4.271-1.719,4.261-4.237c-0.01-2.289-1.755-3.427-1.755-3.427c1.027-2.731-0.632-5.368-2.782-6.104       C23.285,5.822,20.877,4.732,19.017,4.732z"
   id="path121173" />
				</g>
				<g
   id="g121175">
					<path
   fill="rgb(255,255,255)"
   d="M16.564,28.647c0,0.708,0.789,1.131,2.087,1.748c1.028,0.482,1.621,0.993,1.621,1.402       c0,0.662-0.712,0.898-1.381,0.898c-1.033,0-1.646-0.412-1.983-1.338l-0.029-0.08h-0.082c-0.185,0-0.331,0.009-0.41,0.109       c-0.07,0.092-0.052,0.216-0.02,0.337c-0.003-0.003,0.227,0.949,0.227,0.949c0.061,0.232,0.144,0.27,0.513,0.343       c0.162,0.027,0.997,0.172,1.705,0.172c1.977,0,2.861-0.803,2.861-1.6c0-0.579-0.576-1.136-1.814-1.75l-0.564-0.271       c-0.847-0.404-1.355-0.647-1.355-1.071c0-0.411,0.528-0.699,1.287-0.699c0.988,0,1.253,0.553,1.374,1.034l0.022,0.091h0.096       c0.222,0,0.359-0.018,0.439-0.106c0.049-0.049,0.066-0.118,0.057-0.202l-0.08-0.824c-0.021-0.261-0.222-0.3-0.5-0.355       c-0.332-0.06-0.73-0.132-1.327-0.132C17.589,27.304,16.564,27.807,16.564,28.647z"
   id="path121177" />
				</g>
				<g
   id="g121179">
					<path
   fill="rgb(255,255,255)"
   d="M22.255,30.312c0,1.428,1.241,2.877,3.614,2.877c1.197,0,1.871-0.271,2.374-0.541l0.138-0.071       l-0.223-0.244l0.013,0.012c-0.053-0.074-0.098-0.087-0.175-0.087l-0.114,0.038c-0.181,0.084-0.73,0.339-1.728,0.339       c-1.229,0-2.55-0.801-2.55-2.563c0-1.677,1.43-2.272,2.656-2.272c0.881,0,1.351,0.314,1.436,0.967l0.012,0.106h0.111       c0.103,0,0.382,0,0.382-0.21v-0.978c0-0.24-0.276-0.275-0.394-0.291l-0.115-0.015c-0.28-0.041-0.554-0.073-1.267-0.073       C24.01,27.304,22.255,28.569,22.255,30.312z"
   id="path121181" />
				</g>
				<g
   id="g121183">
					<path
   fill="rgb(255,255,255)"
   d="M13.306,27.375l-2.139,0.019l-1.428-0.024l-0.217-0.007c-0.125,0-0.216,0.092-0.216,0.225       c0,0.061,0,0.251,0.234,0.251c0.862,0,0.893,0.072,0.902,0.401l0.007,0.208l0.013,0.88v1.897c0,0.314-0.01,0.813-0.03,1.218       c-0.007,0.116-0.013,0.226-0.773,0.226c-0.213,0-0.342,0.042-0.342,0.254c0,0.062,0,0.225,0.205,0.225l0.049-0.003       c0.091-0.005,0.333-0.017,1.523-0.017c1.267,0,1.524,0.015,1.607,0.017l0.047,0.003c0.167,0,0.31-0.021,0.31-0.225       c0-0.235-0.193-0.254-0.515-0.254c-0.766,0-0.769-0.108-0.773-0.224c-0.018-0.371-0.034-0.873-0.034-1.22c0,0,0-0.508,0-0.684       c0.171,0,0.639,0,0.639,0c0.981,0,1.091,0.027,1.23,0.783c0.041,0.165,0.172,0.185,0.281,0.185c0.23,0,0.255-0.126,0.255-0.184       l-0.017-0.281c-0.017-0.162-0.033-0.363-0.033-0.64v-1.163c0-0.175-0.208-0.175-0.319-0.175c-0.188,0-0.231,0.119-0.35,0.668       c-0.052,0.209-0.457,0.33-1.11,0.33c0,0-0.408,0-0.576,0c0-0.214,0-1.708,0-1.708c0-0.464,0.082-0.468,0.186-0.474       c0.373-0.015,1.284-0.047,1.557-0.047c0.258,0,0.495,0.06,0.653,0.161c0.483,0.303,0.732,0.506,0.883,0.628       c0.146,0.12,0.229,0.19,0.35,0.19c0.07,0,0.276,0,0.276-0.178c0-0.046-0.016-0.086-0.085-0.232       c-0.079-0.174-0.214-0.463-0.38-0.906c-0.048-0.139-0.208-0.139-0.51-0.139L13.306,27.375z"
   id="path121185" />
				</g>
			</g>
		</g>
	</g>
	<g
   id="g121187">
		<path
   fill="rgb(255,255,255)"
   d="M9.886,38.355l-0.579-1.884h0.332l0.305,1.086l0.106,0.403c0.005-0.019,0.039-0.146,0.101-0.384l0.3-1.105    h0.326l0.279,1.092l0.091,0.36l0.109-0.361l0.33-1.091h0.31l-0.604,1.884H10.97l-0.293-1.128l-0.074-0.32l-0.388,1.449    L9.886,38.355L9.886,38.355z"
   id="path121189" />
		<path
   fill="rgb(255,255,255)"
   d="M12.573,38.355l-0.578-1.884h0.334l0.302,1.086l0.108,0.403c0.003-0.019,0.037-0.146,0.101-0.384    l0.298-1.105h0.325l0.279,1.092l0.092,0.36l0.108-0.361l0.334-1.091h0.31l-0.605,1.884H13.66l-0.295-1.128l-0.074-0.32    l-0.386,1.449L12.573,38.355L12.573,38.355z"
   id="path121191" />
		<path
   fill="rgb(255,255,255)"
   d="M15.263,38.355l-0.579-1.884h0.333l0.304,1.086l0.107,0.403c0.004-0.019,0.037-0.146,0.101-0.384    l0.298-1.105h0.326l0.28,1.092l0.091,0.36l0.109-0.361l0.33-1.091h0.312l-0.604,1.884h-0.323l-0.294-1.128l-0.074-0.32    l-0.389,1.449L15.263,38.355L15.263,38.355z"
   id="path121193" />
		<path
   fill="rgb(255,255,255)"
   d="M17.343,38.355v-0.363h0.361v0.363H17.343z"
   id="path121195" />
		<path
   fill="rgb(255,255,255)"
   d="M18.248,38.355v-1.637h-0.275v-0.249h0.275v-0.197c0-0.127,0.013-0.221,0.034-0.281    c0.03-0.082,0.085-0.149,0.162-0.2c0.077-0.053,0.187-0.077,0.325-0.077c0.09,0,0.188,0.012,0.296,0.031l-0.046,0.276    c-0.068-0.012-0.128-0.019-0.188-0.019c-0.097,0-0.166,0.021-0.206,0.063c-0.039,0.042-0.06,0.119-0.06,0.23v0.173h0.368v0.249    h-0.368v1.637H18.248z"
   id="path121197" />
		<path
   fill="rgb(255,255,255)"
   d="M19.096,37.786l0.32-0.041c0.016,0.126,0.064,0.222,0.146,0.291c0.081,0.065,0.192,0.099,0.337,0.099    s0.253-0.03,0.322-0.089c0.072-0.062,0.105-0.131,0.105-0.211c0-0.071-0.029-0.13-0.091-0.171    c-0.047-0.029-0.152-0.063-0.326-0.106c-0.229-0.061-0.389-0.111-0.479-0.154c-0.091-0.045-0.161-0.104-0.208-0.178    c-0.047-0.079-0.071-0.162-0.071-0.252c0-0.086,0.019-0.164,0.059-0.233c0.037-0.073,0.092-0.132,0.156-0.18    c0.051-0.034,0.115-0.065,0.201-0.094c0.085-0.024,0.177-0.036,0.274-0.036c0.146,0,0.273,0.021,0.387,0.064    c0.109,0.043,0.191,0.102,0.246,0.172c0.051,0.073,0.088,0.172,0.107,0.293l-0.311,0.042c-0.015-0.098-0.057-0.174-0.122-0.229    c-0.066-0.055-0.162-0.083-0.283-0.083c-0.145,0-0.246,0.024-0.31,0.073c-0.064,0.048-0.093,0.104-0.093,0.17    c0,0.041,0.012,0.079,0.037,0.11c0.027,0.034,0.067,0.062,0.124,0.085c0.03,0.013,0.121,0.041,0.275,0.081    c0.222,0.062,0.379,0.11,0.466,0.146c0.09,0.041,0.161,0.097,0.212,0.169c0.048,0.073,0.073,0.165,0.073,0.272    s-0.03,0.205-0.092,0.301c-0.061,0.093-0.151,0.166-0.267,0.215c-0.116,0.054-0.248,0.08-0.396,0.08    c-0.241,0-0.429-0.051-0.555-0.153C19.213,38.141,19.132,37.988,19.096,37.786z"
   id="path121199" />
		<path
   fill="rgb(255,255,255)"
   d="M22.233,37.667l0.313,0.043c-0.036,0.216-0.123,0.383-0.263,0.502c-0.141,0.124-0.312,0.186-0.516,0.186    c-0.257,0-0.464-0.085-0.615-0.25c-0.156-0.171-0.235-0.412-0.235-0.725c0-0.205,0.035-0.384,0.1-0.537    c0.066-0.149,0.17-0.265,0.306-0.342c0.139-0.077,0.288-0.113,0.448-0.113c0.202,0,0.367,0.051,0.498,0.155    c0.129,0.104,0.212,0.253,0.248,0.445l-0.312,0.042c-0.027-0.126-0.081-0.222-0.156-0.286c-0.072-0.063-0.162-0.096-0.269-0.096    c-0.157,0-0.288,0.058-0.386,0.173c-0.102,0.116-0.151,0.298-0.151,0.548c0,0.252,0.048,0.438,0.147,0.548    c0.094,0.117,0.221,0.174,0.375,0.174c0.124,0,0.228-0.039,0.312-0.113C22.158,37.944,22.212,37.826,22.233,37.667z"
   id="path121201" />
		<path
   fill="rgb(255,255,255)"
   d="M22.887,38.355v-0.363h0.364v0.363H22.887z"
   id="path121203" />
		<path
   fill="rgb(255,255,255)"
   d="M23.543,37.414c0-0.351,0.097-0.607,0.29-0.776c0.162-0.139,0.361-0.208,0.593-0.208    c0.26,0,0.47,0.086,0.634,0.252c0.163,0.171,0.245,0.404,0.245,0.703c0,0.243-0.035,0.435-0.108,0.572    c-0.072,0.14-0.178,0.247-0.317,0.324c-0.137,0.077-0.29,0.115-0.453,0.115c-0.263,0-0.476-0.085-0.639-0.252    C23.626,37.973,23.543,37.731,23.543,37.414z M23.868,37.412c0,0.241,0.055,0.423,0.161,0.542c0.103,0.12,0.236,0.181,0.396,0.181    c0.158,0,0.292-0.061,0.395-0.182c0.107-0.119,0.161-0.303,0.161-0.551c0-0.234-0.054-0.41-0.161-0.53    c-0.104-0.119-0.238-0.18-0.395-0.18c-0.16,0-0.294,0.061-0.396,0.179C23.923,36.989,23.868,37.172,23.868,37.412z"
   id="path121205" />
		<path
   fill="rgb(255,255,255)"
   d="M25.673,38.355v-1.884h0.281v0.291c0.076-0.136,0.142-0.225,0.203-0.268    c0.063-0.044,0.131-0.064,0.205-0.064c0.11,0,0.218,0.033,0.328,0.104l-0.112,0.291c-0.076-0.042-0.152-0.062-0.231-0.062    c-0.067,0-0.129,0.02-0.187,0.062c-0.052,0.042-0.094,0.1-0.117,0.175c-0.033,0.114-0.052,0.236-0.052,0.371v0.985L25.673,38.355    L25.673,38.355z"
   id="path121207" />
		<path
   fill="rgb(255,255,255)"
   d="M26.789,38.508l0.318,0.043c0.013,0.1,0.05,0.171,0.107,0.216c0.078,0.06,0.188,0.09,0.322,0.09    c0.146,0,0.261-0.031,0.342-0.09c0.077-0.059,0.133-0.145,0.16-0.25c0.018-0.066,0.023-0.203,0.023-0.412    c-0.14,0.167-0.314,0.25-0.522,0.25c-0.26,0-0.46-0.094-0.601-0.281c-0.143-0.188-0.213-0.41-0.213-0.672    c0-0.178,0.031-0.344,0.097-0.497c0.065-0.151,0.157-0.27,0.283-0.353c0.123-0.084,0.269-0.124,0.434-0.124    c0.224,0,0.407,0.095,0.553,0.276v-0.234h0.288v1.628c0,0.292-0.027,0.501-0.091,0.625c-0.057,0.12-0.152,0.219-0.281,0.287    c-0.129,0.072-0.288,0.107-0.477,0.107c-0.224,0-0.406-0.049-0.544-0.15C26.849,38.866,26.784,38.713,26.789,38.508z     M27.05,37.379c0,0.248,0.05,0.43,0.149,0.542c0.098,0.115,0.223,0.17,0.37,0.17s0.271-0.055,0.371-0.167    c0.101-0.114,0.152-0.292,0.152-0.534c0-0.23-0.054-0.404-0.157-0.521s-0.227-0.176-0.372-0.176c-0.142,0-0.262,0.058-0.362,0.174    C27.1,36.981,27.05,37.151,27.05,37.379z"
   id="path121209" />
	</g>
</g>

</g><g transform="translate(76.000000 12.000000)">
<g transform="translate(0.000000 0.000000) scale(1.000000)">
<!-- |™|  -->
<g transform="translate( 0.000000 11.800000 ) scale(1 -1)">
<path
	fill="rgb(255,255,255)"
	stroke="rgb(255,255,255)"
	stroke-width="0.431247"
	d="M9.503609 3.509274 
	H8.829785 
	V7.196437 
	H8.808223 
	L7.708543 3.509274 
	H7.045500 
	L5.886524 7.255733 
	H5.859571 
	V3.509274 
	H5.191138 
	V7.902604 
	H6.269255 
	L7.363545 4.393330 
	H7.385107 
	L8.447053 7.902604 
	H9.503609 
	V3.509274 
	Z
	M4.689813 7.255733 
	H3.255916 
	V3.509274 
	H2.528186 
	V7.255733 
	H1.105071 
	V7.902604 
	H4.689813 
	V7.255733 
	Z" />
</g>

</g>
</g><g transform="translate(128.000000 60.000000)">
<g transform="translate(24.511192 0.000000) scale(1.000000)">
<!-- |The mark of|  -->
<g transform="translate( 0.000000 14.000000 ) scale(1 -1)">
<path
	fill="rgb(40,92,77)"
	stroke="rgb(40,92,77)"
	stroke-width="0.511649"
	d="M7.713111 8.263134 
	H4.611238 
	V0.000000 
	H3.364093 
	V8.263134 
	H0.287803 
	V9.375971 
	H7.713111 
	V8.263134 
	Z" />
</g>
<g transform="translate( 8.512563 14.000000 ) scale(1 -1)">
<path
	fill="rgb(40,92,77)"
	stroke="rgb(40,92,77)"
	stroke-width="0.511649"
	d="M6.421197 0.000000 
	H5.263591 
	V4.285062 
	Q5.263591 5.116492 4.905436 5.532206 
	T3.837369 5.947921 
	Q3.133851 5.947921 2.583828 5.461855 
	T2.027410 3.709456 
	V0.000000 
	H0.876199 
	V9.375971 
	H2.027410 
	V6.011878 
	Q2.846048 6.939242 4.074006 6.939242 
	Q4.732755 6.939242 5.333942 6.670626 
	T6.178164 5.845592 
	T6.421197 4.297853 
	V0.000000 
	Z" />
</g>
<g transform="translate( 16.308817 14.000000 ) scale(1 -1)">
<path
	fill="rgb(40,92,77)"
	stroke="rgb(40,92,77)"
	stroke-width="0.511649"
	d="M6.772956 3.101873 
	H1.688442 
	Q1.758794 1.976245 2.328004 1.381453 
	T3.760621 0.786661 
	Q4.419370 0.786661 4.867063 1.132024 
	T5.551393 2.187300 
	L6.734582 2.040201 
	Q6.446779 0.978529 5.679306 0.409319 
	T3.760621 -0.159890 
	Q2.232069 -0.159890 1.375057 0.773869 
	T0.511649 3.338511 
	Q0.511649 4.943810 1.343079 5.941526 
	T3.696665 6.939242 
	Q4.438556 6.939242 5.122887 6.613065 
	T6.293285 5.506624 
	T6.772956 3.101873 
	Z
	M5.589767 4.048424 
	Q5.519415 5.084513 4.950206 5.538602 
	T3.696665 5.999086 
	Q2.884422 5.999086 2.359982 5.455459 
	T1.752398 4.048424 
	H5.589767 
	Z" />
</g>
<g transform="translate( 28.255825 14.000000 ) scale(1 -1)">
<path
	fill="rgb(40,92,77)"
	stroke="rgb(40,92,77)"
	stroke-width="0.511649"
	d="M10.073093 0.000000 
	H8.921882 
	V4.285062 
	Q8.921882 4.758337 8.857926 5.090909 
	T8.531750 5.685701 
	T7.700320 5.947921 
	Q7.022385 5.947921 6.529922 5.474646 
	T6.037460 3.939698 
	V0.000000 
	H4.886249 
	V4.412974 
	Q4.886249 5.295569 4.579260 5.621745 
	T3.696665 5.947921 
	Q2.954774 5.947921 2.481498 5.436272 
	T2.001827 3.523984 
	V0.000000 
	H0.850617 
	V6.785747 
	H1.886706 
	V5.839196 
	H1.912289 
	Q2.603015 6.939242 3.939698 6.939242 
	Q4.687985 6.939242 5.167656 6.645043 
	T5.871174 5.749657 
	Q6.625857 6.939242 7.962540 6.939242 
	Q9.017816 6.939242 9.542257 6.370032 
	T10.073093 4.662403 
	V0.000000 
	Z" />
</g>
<g transform="translate( 39.678392 14.000000 ) scale(1 -1)">
<path
	fill="rgb(40,92,77)"
	stroke="rgb(40,92,77)"
	stroke-width="0.511649"
	d="M6.760164 0.000000 
	H5.551393 
	Q5.385107 0.319781 5.314756 0.837825 
	Q4.157149 -0.159890 2.814070 -0.159890 
	Q1.739607 -0.159890 1.119233 0.377341 
	T0.498858 1.797168 
	Q0.498858 2.641389 1.093650 3.185016 
	T3.172225 3.914116 
	L4.246688 4.074006 
	Q4.847876 4.169941 5.238008 4.310644 
	Q5.238008 4.828689 5.206030 5.039744 
	T5.020557 5.487437 
	T4.515304 5.858383 
	T3.587940 5.999086 
	Q2.846048 5.999086 2.417542 5.724075 
	T1.822750 4.700777 
	L0.697122 4.847876 
	Q0.882595 5.890361 1.650069 6.414801 
	T3.760621 6.939242 
	Q4.982184 6.939242 5.551393 6.581087 
	T6.254911 5.704888 
	T6.389219 4.387392 
	V2.839653 
	Q6.389219 1.426222 6.440384 0.946551 
	T6.760164 0.000000 
	Z
	M5.238008 2.986752 
	V3.402467 
	Q4.336227 3.101873 3.031521 2.929191 
	T1.726816 1.822750 
	Q1.726816 1.355870 2.078575 1.055276 
	T3.089082 0.748287 
	Q3.939698 0.748287 4.585656 1.253540 
	T5.238008 2.986752 
	Z" />
</g>
<g transform="translate( 47.474646 14.000000 ) scale(1 -1)">
<path
	fill="rgb(40,92,77)"
	stroke="rgb(40,92,77)"
	stroke-width="0.511649"
	d="M4.534491 6.574692 
	L4.137963 5.513020 
	Q3.709456 5.762449 3.300137 5.762449 
	Q2.654180 5.762449 2.321608 5.186843 
	T1.989036 3.562357 
	V0.000000 
	H0.837825 
	V6.785747 
	H1.886706 
	V5.762449 
	H1.912289 
	Q2.462312 6.939242 3.351302 6.939242 
	Q3.939698 6.939242 4.534491 6.574692 
	Z" />
</g>
<g transform="translate( 52.348104 14.000000 ) scale(1 -1)">
<path
	fill="rgb(40,92,77)"
	stroke="rgb(40,92,77)"
	stroke-width="0.511649"
	d="M6.497944 0.000000 
	H5.084513 
	L2.826862 3.472819 
	L2.014619 2.698949 
	V0.000000 
	H0.863408 
	V9.375971 
	H2.014619 
	V4.035633 
	L4.739150 6.785747 
	H6.235724 
	L3.639105 4.272270 
	L6.497944 0.000000 
	Z" />
</g>
<g transform="translate( 63.559616 14.000000 ) scale(1 -1)">
<path
	fill="rgb(40,92,77)"
	stroke="rgb(40,92,77)"
	stroke-width="0.511649"
	d="M3.639105 6.939242 
	Q5.014162 6.939242 5.915943 6.043856 
	T6.824121 3.498401 
	Q6.824121 1.496574 5.845592 0.671540 
	T3.639105 -0.159890 
	Q2.353586 -0.159890 1.407035 0.690726 
	T0.460484 3.389676 
	Q0.460484 5.180448 1.375057 6.056647 
	T3.639105 6.939242 
	Z
	M3.639105 0.786661 
	Q4.624029 0.786661 5.135678 1.515761 
	T5.647328 3.434445 
	Q5.647328 4.707172 5.071722 5.353129 
	T3.639105 5.999086 
	Q2.762905 5.999086 2.200091 5.346734 
	T1.637277 3.389676 
	Q1.637277 2.097762 2.206487 1.445409 
	T3.639105 0.786661 
	Z" />
</g>
<g transform="translate( 71.355870 14.000000 ) scale(1 -1)">
<path
	fill="rgb(40,92,77)"
	stroke="rgb(40,92,77)"
	stroke-width="0.511649"
	d="M4.074006 9.420740 
	L3.901325 8.410233 
	Q3.555962 8.474189 3.223390 8.474189 
	Q2.807675 8.474189 2.545455 8.301508 
	T2.276839 7.425308 
	V6.785747 
	H3.587940 
	V5.896757 
	H2.276839 
	V0.000000 
	H1.125628 
	V5.896757 
	H0.102330 
	V6.785747 
	H1.125628 
	V7.521243 
	Q1.125628 8.032892 1.221562 8.448607 
	T1.726816 9.196894 
	T2.999543 9.535861 
	Q3.511192 9.535861 4.074006 9.420740 
	Z" />
</g>

</g>

<g transform="translate(0.000000 15.000000) scale(1.000000)">
<!-- |responsible forestry|  -->
<g transform="translate( 0.000000 14.000000 ) scale(1 -1)">
<path
	fill="rgb(40,92,77)"
	stroke="rgb(40,92,77)"
	stroke-width="0.511649"
	d="M4.534491 6.574692 
	L4.137963 5.513020 
	Q3.709456 5.762449 3.300137 5.762449 
	Q2.654180 5.762449 2.321608 5.186843 
	T1.989036 3.562357 
	V0.000000 
	H0.837825 
	V6.785747 
	H1.886706 
	V5.762449 
	H1.912289 
	Q2.462312 6.939242 3.351302 6.939242 
	Q3.939698 6.939242 4.534491 6.574692 
	Z" />
</g>
<g transform="translate( 4.873458 14.000000 ) scale(1 -1)">
<path
	fill="rgb(40,92,77)"
	stroke="rgb(40,92,77)"
	stroke-width="0.511649"
	d="M6.772956 3.101873 
	H1.688442 
	Q1.758794 1.976245 2.328004 1.381453 
	T3.760621 0.786661 
	Q4.419370 0.786661 4.867063 1.132024 
	T5.551393 2.187300 
	L6.734582 2.040201 
	Q6.446779 0.978529 5.679306 0.409319 
	T3.760621 -0.159890 
	Q2.232069 -0.159890 1.375057 0.773869 
	T0.511649 3.338511 
	Q0.511649 4.943810 1.343079 5.941526 
	T3.696665 6.939242 
	Q4.438556 6.939242 5.122887 6.613065 
	T6.293285 5.506624 
	T6.772956 3.101873 
	Z
	M5.589767 4.048424 
	Q5.519415 5.084513 4.950206 5.538602 
	T3.696665 5.999086 
	Q2.884422 5.999086 2.359982 5.455459 
	T1.752398 4.048424 
	H5.589767 
	Z" />
</g>
<g transform="translate( 12.669712 14.000000 ) scale(1 -1)">
<path
	fill="rgb(40,92,77)"
	stroke="rgb(40,92,77)"
	stroke-width="0.511649"
	d="M4.662403 4.886249 
	Q4.585656 5.442668 4.214710 5.717679 
	T3.172225 5.999086 
	Q2.513476 5.999086 2.110553 5.775240 
	T1.701233 5.122887 
	Q1.701233 4.719963 2.021014 4.547282 
	T3.300137 4.125171 
	Q4.374600 3.850160 4.905436 3.639105 
	T5.736866 3.050708 
	T6.037460 1.989036 
	Q6.037460 1.080859 5.295569 0.460484 
	T3.312928 -0.159890 
	Q2.021014 -0.159890 1.298310 0.383737 
	T0.402924 2.027410 
	L1.547739 2.200091 
	Q1.637277 1.490178 2.072179 1.138419 
	T3.300137 0.786661 
	Q4.054820 0.786661 4.457743 1.100046 
	T4.860667 1.873915 
	Q4.860667 2.180905 4.675194 2.366377 
	T4.214710 2.641389 
	T2.961169 2.973961 
	Q1.515761 3.319324 1.055276 3.811786 
	T0.588397 4.988579 
	Q0.588397 5.839196 1.266332 6.389219 
	T3.089082 6.939242 
	Q4.304249 6.939242 4.975788 6.465966 
	T5.788031 5.039744 
	L4.662403 4.886249 
	Z" />
</g>
<g transform="translate( 19.730471 14.000000 ) scale(1 -1)">
<path
	fill="rgb(40,92,77)"
	stroke="rgb(40,92,77)"
	stroke-width="0.511649"
	d="M1.963454 5.909548 
	Q2.609411 6.939242 3.901325 6.939242 
	Q5.238008 6.939242 6.011878 5.973504 
	T6.785747 3.447236 
	Q6.785747 1.790772 5.928735 0.818639 
	T3.824577 -0.159890 
	Q2.730927 -0.159890 2.072179 0.709913 
	H2.040201 
	V-2.609411 
	H0.888990 
	V6.785747 
	H1.937871 
	V5.909548 
	H1.963454 
	Z
	M3.747830 0.786661 
	Q4.553677 0.786661 5.078118 1.451804 
	T5.608954 3.447236 
	Q5.608954 4.694381 5.103700 5.365921 
	T3.798995 6.037460 
	Q2.980356 6.037460 2.455916 5.289173 
	T1.925080 3.351302 
	Q1.925080 2.091366 2.430333 1.439013 
	T3.747830 0.786661 
	Z" />
</g>
<g transform="translate( 27.526725 14.000000 ) scale(1 -1)">
<path
	fill="rgb(40,92,77)"
	stroke="rgb(40,92,77)"
	stroke-width="0.511649"
	d="M3.639105 6.939242 
	Q5.014162 6.939242 5.915943 6.043856 
	T6.824121 3.498401 
	Q6.824121 1.496574 5.845592 0.671540 
	T3.639105 -0.159890 
	Q2.353586 -0.159890 1.407035 0.690726 
	T0.460484 3.389676 
	Q0.460484 5.180448 1.375057 6.056647 
	T3.639105 6.939242 
	Z
	M3.639105 0.786661 
	Q4.624029 0.786661 5.135678 1.515761 
	T5.647328 3.434445 
	Q5.647328 4.707172 5.071722 5.353129 
	T3.639105 5.999086 
	Q2.762905 5.999086 2.200091 5.346734 
	T1.637277 3.389676 
	Q1.637277 2.097762 2.206487 1.445409 
	T3.639105 0.786661 
	Z" />
</g>
<g transform="translate( 35.322979 14.000000 ) scale(1 -1)">
<path
	fill="rgb(40,92,77)"
	stroke="rgb(40,92,77)"
	stroke-width="0.511649"
	d="M6.421197 0.000000 
	H5.263591 
	V4.125171 
	Q5.263591 5.167656 4.892645 5.557789 
	T3.850160 5.947921 
	Q3.338511 5.947921 2.884422 5.698492 
	T2.232069 4.994975 
	T2.040201 3.709456 
	V0.000000 
	H0.888990 
	V6.785747 
	H1.925080 
	V5.826405 
	H1.950662 
	Q2.315212 6.382823 2.846048 6.657835 
	T4.086798 6.939242 
	Q4.624029 6.939242 5.148470 6.747373 
	T5.967108 6.171768 
	T6.344450 5.353129 
	T6.421197 4.176336 
	V0.000000 
	Z" />
</g>
<g transform="translate( 43.119233 14.000000 ) scale(1 -1)">
<path
	fill="rgb(40,92,77)"
	stroke="rgb(40,92,77)"
	stroke-width="0.511649"
	d="M4.662403 4.886249 
	Q4.585656 5.442668 4.214710 5.717679 
	T3.172225 5.999086 
	Q2.513476 5.999086 2.110553 5.775240 
	T1.701233 5.122887 
	Q1.701233 4.719963 2.021014 4.547282 
	T3.300137 4.125171 
	Q4.374600 3.850160 4.905436 3.639105 
	T5.736866 3.050708 
	T6.037460 1.989036 
	Q6.037460 1.080859 5.295569 0.460484 
	T3.312928 -0.159890 
	Q2.021014 -0.159890 1.298310 0.383737 
	T0.402924 2.027410 
	L1.547739 2.200091 
	Q1.637277 1.490178 2.072179 1.138419 
	T3.300137 0.786661 
	Q4.054820 0.786661 4.457743 1.100046 
	T4.860667 1.873915 
	Q4.860667 2.180905 4.675194 2.366377 
	T4.214710 2.641389 
	T2.961169 2.973961 
	Q1.515761 3.319324 1.055276 3.811786 
	T0.588397 4.988579 
	Q0.588397 5.839196 1.266332 6.389219 
	T3.089082 6.939242 
	Q4.304249 6.939242 4.975788 6.465966 
	T5.788031 5.039744 
	L4.662403 4.886249 
	Z" />
</g>
<g transform="translate( 50.179991 14.000000 ) scale(1 -1)">
<path
	fill="rgb(40,92,77)"
	stroke="rgb(40,92,77)"
	stroke-width="0.511649"
	d="M2.027410 0.000000 
	H0.876199 
	V6.785747 
	H2.027410 
	V0.000000 
	Z
	M2.027410 8.071265 
	H0.876199 
	V9.375971 
	H2.027410 
	V8.071265 
	Z" />
</g>
<g transform="translate( 53.601645 14.000000 ) scale(1 -1)">
<path
	fill="rgb(40,92,77)"
	stroke="rgb(40,92,77)"
	stroke-width="0.511649"
	d="M2.059388 6.024669 
	Q2.698949 6.939242 3.888534 6.939242 
	Q5.199635 6.939242 5.986295 5.986295 
	T6.772956 3.498401 
	Q6.772956 1.726816 5.896757 0.786661 
	T3.837369 -0.159890 
	Q2.641389 -0.159890 1.976245 0.850617 
	H1.950662 
	V0.000000 
	H0.876199 
	V9.375971 
	H2.027410 
	V6.024669 
	H2.059388 
	Z
	M3.747830 0.786661 
	Q4.547282 0.786661 5.065327 1.470991 
	T5.589767 3.402467 
	Q5.589767 4.598447 5.110096 5.295569 
	T3.786204 5.999086 
	Q2.954774 5.999086 2.449520 5.276382 
	T1.937871 3.447236 
	Q1.937871 2.366377 2.148926 1.912289 
	T2.782092 1.119233 
	T3.747830 0.786661 
	Z" />
</g>
<g transform="translate( 61.397899 14.000000 ) scale(1 -1)">
<path
	fill="rgb(40,92,77)"
	stroke="rgb(40,92,77)"
	stroke-width="0.511649"
	d="M2.027410 0.000000 
	H0.876199 
	V9.375971 
	H2.027410 
	V0.000000 
	Z" />
</g>
<g transform="translate( 64.819552 14.000000 ) scale(1 -1)">
<path
	fill="rgb(40,92,77)"
	stroke="rgb(40,92,77)"
	stroke-width="0.511649"
	d="M6.772956 3.101873 
	H1.688442 
	Q1.758794 1.976245 2.328004 1.381453 
	T3.760621 0.786661 
	Q4.419370 0.786661 4.867063 1.132024 
	T5.551393 2.187300 
	L6.734582 2.040201 
	Q6.446779 0.978529 5.679306 0.409319 
	T3.760621 -0.159890 
	Q2.232069 -0.159890 1.375057 0.773869 
	T0.511649 3.338511 
	Q0.511649 4.943810 1.343079 5.941526 
	T3.696665 6.939242 
	Q4.438556 6.939242 5.122887 6.613065 
	T6.293285 5.506624 
	T6.772956 3.101873 
	Z
	M5.589767 4.048424 
	Q5.519415 5.084513 4.950206 5.538602 
	T3.696665 5.999086 
	Q2.884422 5.999086 2.359982 5.455459 
	T1.752398 4.048424 
	H5.589767 
	Z" />
</g>
<g transform="translate( 76.766560 14.000000 ) scale(1 -1)">
<path
	fill="rgb(40,92,77)"
	stroke="rgb(40,92,77)"
	stroke-width="0.511649"
	d="M4.074006 9.420740 
	L3.901325 8.410233 
	Q3.555962 8.474189 3.223390 8.474189 
	Q2.807675 8.474189 2.545455 8.301508 
	T2.276839 7.425308 
	V6.785747 
	H3.587940 
	V5.896757 
	H2.276839 
	V0.000000 
	H1.125628 
	V5.896757 
	H0.102330 
	V6.785747 
	H1.125628 
	V7.521243 
	Q1.125628 8.032892 1.221562 8.448607 
	T1.726816 9.196894 
	T2.999543 9.535861 
	Q3.511192 9.535861 4.074006 9.420740 
	Z" />
</g>
<g transform="translate( 80.917314 14.000000 ) scale(1 -1)">
<path
	fill="rgb(40,92,77)"
	stroke="rgb(40,92,77)"
	stroke-width="0.511649"
	d="M3.639105 6.939242 
	Q5.014162 6.939242 5.915943 6.043856 
	T6.824121 3.498401 
	Q6.824121 1.496574 5.845592 0.671540 
	T3.639105 -0.159890 
	Q2.353586 -0.159890 1.407035 0.690726 
	T0.460484 3.389676 
	Q0.460484 5.180448 1.375057 6.056647 
	T3.639105 6.939242 
	Z
	M3.639105 0.786661 
	Q4.624029 0.786661 5.135678 1.515761 
	T5.647328 3.434445 
	Q5.647328 4.707172 5.071722 5.353129 
	T3.639105 5.999086 
	Q2.762905 5.999086 2.200091 5.346734 
	T1.637277 3.389676 
	Q1.637277 2.097762 2.206487 1.445409 
	T3.639105 0.786661 
	Z" />
</g>
<g transform="translate( 88.713568 14.000000 ) scale(1 -1)">
<path
	fill="rgb(40,92,77)"
	stroke="rgb(40,92,77)"
	stroke-width="0.511649"
	d="M4.534491 6.574692 
	L4.137963 5.513020 
	Q3.709456 5.762449 3.300137 5.762449 
	Q2.654180 5.762449 2.321608 5.186843 
	T1.989036 3.562357 
	V0.000000 
	H0.837825 
	V6.785747 
	H1.886706 
	V5.762449 
	H1.912289 
	Q2.462312 6.939242 3.351302 6.939242 
	Q3.939698 6.939242 4.534491 6.574692 
	Z" />
</g>
<g transform="translate( 93.587026 14.000000 ) scale(1 -1)">
<path
	fill="rgb(40,92,77)"
	stroke="rgb(40,92,77)"
	stroke-width="0.511649"
	d="M6.772956 3.101873 
	H1.688442 
	Q1.758794 1.976245 2.328004 1.381453 
	T3.760621 0.786661 
	Q4.419370 0.786661 4.867063 1.132024 
	T5.551393 2.187300 
	L6.734582 2.040201 
	Q6.446779 0.978529 5.679306 0.409319 
	T3.760621 -0.159890 
	Q2.232069 -0.159890 1.375057 0.773869 
	T0.511649 3.338511 
	Q0.511649 4.943810 1.343079 5.941526 
	T3.696665 6.939242 
	Q4.438556 6.939242 5.122887 6.613065 
	T6.293285 5.506624 
	T6.772956 3.101873 
	Z
	M5.589767 4.048424 
	Q5.519415 5.084513 4.950206 5.538602 
	T3.696665 5.999086 
	Q2.884422 5.999086 2.359982 5.455459 
	T1.752398 4.048424 
	H5.589767 
	Z" />
</g>
<g transform="translate( 101.383280 14.000000 ) scale(1 -1)">
<path
	fill="rgb(40,92,77)"
	stroke="rgb(40,92,77)"
	stroke-width="0.511649"
	d="M4.662403 4.886249 
	Q4.585656 5.442668 4.214710 5.717679 
	T3.172225 5.999086 
	Q2.513476 5.999086 2.110553 5.775240 
	T1.701233 5.122887 
	Q1.701233 4.719963 2.021014 4.547282 
	T3.300137 4.125171 
	Q4.374600 3.850160 4.905436 3.639105 
	T5.736866 3.050708 
	T6.037460 1.989036 
	Q6.037460 1.080859 5.295569 0.460484 
	T3.312928 -0.159890 
	Q2.021014 -0.159890 1.298310 0.383737 
	T0.402924 2.027410 
	L1.547739 2.200091 
	Q1.637277 1.490178 2.072179 1.138419 
	T3.300137 0.786661 
	Q4.054820 0.786661 4.457743 1.100046 
	T4.860667 1.873915 
	Q4.860667 2.180905 4.675194 2.366377 
	T4.214710 2.641389 
	T2.961169 2.973961 
	Q1.515761 3.319324 1.055276 3.811786 
	T0.588397 4.988579 
	Q0.588397 5.839196 1.266332 6.389219 
	T3.089082 6.939242 
	Q4.304249 6.939242 4.975788 6.465966 
	T5.788031 5.039744 
	L4.662403 4.886249 
	Z" />
</g>
<g transform="translate( 108.444038 14.000000 ) scale(1 -1)">
<path
	fill="rgb(40,92,77)"
	stroke="rgb(40,92,77)"
	stroke-width="0.511649"
	d="M3.523984 0.012791 
	Q3.012334 -0.089539 2.660576 -0.089539 
	Q1.905893 -0.089539 1.560530 0.172682 
	T1.138419 0.850617 
	T1.061672 1.989036 
	V5.896757 
	H0.223847 
	V6.785747 
	H1.061672 
	V8.474189 
	L2.212883 9.171311 
	V6.785747 
	H3.364093 
	V5.896757 
	H2.212883 
	V1.925080 
	Q2.212883 1.413431 2.315212 1.202376 
	T2.852444 0.984925 
	Q3.101873 0.984925 3.364093 1.036090 
	L3.523984 0.012791 
	Z" />
</g>
<g transform="translate( 112.594792 14.000000 ) scale(1 -1)">
<path
	fill="rgb(40,92,77)"
	stroke="rgb(40,92,77)"
	stroke-width="0.511649"
	d="M4.534491 6.574692 
	L4.137963 5.513020 
	Q3.709456 5.762449 3.300137 5.762449 
	Q2.654180 5.762449 2.321608 5.186843 
	T1.989036 3.562357 
	V0.000000 
	H0.837825 
	V6.785747 
	H1.886706 
	V5.762449 
	H1.912289 
	Q2.462312 6.939242 3.351302 6.939242 
	Q3.939698 6.939242 4.534491 6.574692 
	Z" />
</g>
<g transform="translate( 117.468250 14.000000 ) scale(1 -1)">
<path
	fill="rgb(40,92,77)"
	stroke="rgb(40,92,77)"
	stroke-width="0.511649"
	d="M6.446779 6.785747 
	L3.850160 -0.115121 
	Q3.843764 -0.127912 3.837369 -0.159890 
	Q3.466423 -1.311101 2.973961 -2.027410 
	T1.560530 -2.750114 
	Q1.253540 -2.750114 0.812243 -2.622202 
	L0.697122 -1.534947 
	Q1.029694 -1.637277 1.349475 -1.637277 
	Q1.989036 -1.637277 2.232069 -1.285519 
	T2.788488 -0.012791 
	L0.211055 6.785747 
	H1.451804 
	L3.050708 2.340795 
	Q3.191412 1.931476 3.351302 1.285519 
	H3.376884 
	Q3.536775 2.027410 3.786204 2.698949 
	L5.276382 6.785747 
	H6.446779 
	Z" />
</g>

</g>
</g><g transform="translate(141.086095 101.000000)">
<g transform="translate(0.000000 0.000000) scale(1.000000)">
<!-- |FSC|  -->
<g transform="translate( 0.000000 14.000000 ) scale(1 -1)">
<path
	fill="rgb(40,92,77)"
	stroke="rgb(40,92,77)"
	stroke-width="0.511649"
	d="M7.374143 8.263134 
	H2.289630 
	V5.359525 
	H6.696208 
	V4.246688 
	H2.289630 
	V0.000000 
	H1.048881 
	V9.375971 
	H7.374143 
	V8.263134 
	Z" />
</g>
<g transform="translate( 8.512563 14.000000 ) scale(1 -1)">
<path
	fill="rgb(40,92,77)"
	stroke="rgb(40,92,77)"
	stroke-width="0.511649"
	d="M6.574692 6.625857 
	Q6.497944 7.521243 5.928735 7.968936 
	T4.297853 8.423024 
	Q3.338511 8.423024 2.737323 8.064870 
	T2.136135 7.022385 
	Q2.136135 6.414801 2.596619 6.120603 
	T4.374600 5.525811 
	Q5.538602 5.269986 6.274098 5.001370 
	T7.534034 4.169941 
	T8.058474 2.647784 
	Q8.058474 1.439013 7.099132 0.639561 
	T4.585656 -0.159890 
	Q2.609411 -0.159890 1.630882 0.722704 
	T0.588397 3.012334 
	L1.765190 3.114664 
	Q1.848333 1.989036 2.634993 1.477387 
	T4.534491 0.959342 
	Q5.576976 0.959342 6.216537 1.387848 
	T6.862494 2.551850 
	Q6.862494 3.319324 6.190955 3.671083 
	T3.939698 4.361809 
	T1.656464 5.327547 
	T0.959342 6.939242 
	Q0.959342 8.064870 1.841937 8.800365 
	T4.246688 9.535861 
	Q5.807218 9.535861 6.753769 8.806761 
	T7.764276 6.721791 
	L6.574692 6.625857 
	Z" />
</g>
<g transform="translate( 17.760621 14.000000 ) scale(1 -1)">
<path
	fill="rgb(40,92,77)"
	stroke="rgb(40,92,77)"
	stroke-width="0.511649"
	d="M8.947465 2.973961 
	Q8.538145 1.394244 7.521243 0.620375 
	T5.071722 -0.159890 
	Q2.769301 -0.159890 1.720420 1.279123 
	T0.665144 4.751942 
	Q0.665144 6.996802 1.899497 8.263134 
	T5.084513 9.535861 
	Q6.453175 9.535861 7.425308 8.838739 
	T8.787574 6.798538 
	L7.572407 6.510735 
	Q7.265418 7.489265 6.638648 7.981727 
	T5.071722 8.474189 
	Q3.536775 8.474189 2.743719 7.470078 
	T1.950662 4.764733 
	Q1.950662 2.807675 2.782092 1.854728 
	T4.962997 0.901782 
	Q6.063042 0.901782 6.747373 1.496574 
	T7.713111 3.287346 
	L8.947465 2.973961 
	Z" />
</g>

</g>

<g transform="translate(28.901659 2.333333) scale(1.000000)">
<!-- |™|  -->
<g transform="translate( 0.087043 7.000000 ) scale(1 -1)">
<path
	fill="rgb(40,92,77)"
	stroke="rgb(40,92,77)"
	stroke-width="0.255825"
	d="M5.637734 2.081772 
	H5.238008 
	V4.269073 
	H5.225217 
	L4.572864 2.081772 
	H4.179534 
	L3.492005 4.304249 
	H3.476016 
	V2.081772 
	H3.079488 
	V4.687985 
	H3.719050 
	L4.368205 2.606213 
	H4.380996 
	L5.010964 4.687985 
	H5.637734 
	V2.081772 
	Z
	M2.782092 4.304249 
	H1.931476 
	V2.081772 
	H1.499772 
	V4.304249 
	H0.655550 
	V4.687985 
	H2.782092 
	V4.304249 
	Z" />
</g>

</g>

<g transform="translate(37.219735 0.000000) scale(1.000000)">
<!-- | C147178|  -->
<g transform="translate( 0.238043 14.000000 ) scale(1 -1)">
<path
	fill="rgb(40,92,77)"
	stroke="rgb(40,92,77)"
	stroke-width="0.511649"
	d="" />
</g>
<g transform="translate( 4.388797 14.000000 ) scale(1 -1)">
<path
	fill="rgb(40,92,77)"
	stroke="rgb(40,92,77)"
	stroke-width="0.511649"
	d="M8.947465 2.973961 
	Q8.538145 1.394244 7.521243 0.620375 
	T5.071722 -0.159890 
	Q2.769301 -0.159890 1.720420 1.279123 
	T0.665144 4.751942 
	Q0.665144 6.996802 1.899497 8.263134 
	T5.084513 9.535861 
	Q6.453175 9.535861 7.425308 8.838739 
	T8.787574 6.798538 
	L7.572407 6.510735 
	Q7.265418 7.489265 6.638648 7.981727 
	T5.071722 8.474189 
	Q3.536775 8.474189 2.743719 7.470078 
	T1.950662 4.764733 
	Q1.950662 2.807675 2.782092 1.854728 
	T4.962997 0.901782 
	Q6.063042 0.901782 6.747373 1.496574 
	T7.713111 3.287346 
	L8.947465 2.973961 
	Z" />
</g>
<g transform="translate( 14.359560 14.000000 ) scale(1 -1)">
<path
	fill="rgb(40,92,77)"
	stroke="rgb(40,92,77)"
	stroke-width="0.511649"
	d="M4.911832 0.000000 
	H3.760621 
	V7.335770 
	Q2.897213 6.517131 1.451804 5.947921 
	V7.060758 
	Q3.440841 8.013705 4.163545 9.420740 
	H4.911832 
	V0.000000 
	Z" />
</g>
<g transform="translate( 22.155814 14.000000 ) scale(1 -1)">
<path
	fill="rgb(40,92,77)"
	stroke="rgb(40,92,77)"
	stroke-width="0.511649"
	d="M6.677021 2.238465 
	H5.410690 
	V0.000000 
	H4.259479 
	V2.238465 
	H0.198264 
	V3.300137 
	L4.464139 9.375971 
	H5.410690 
	V3.300137 
	H6.677021 
	V2.238465 
	Z
	M4.259479 3.300137 
	V7.534034 
	H4.233897 
	L1.323892 3.300137 
	H4.259479 
	Z" />
</g>
<g transform="translate( 29.952068 14.000000 ) scale(1 -1)">
<path
	fill="rgb(40,92,77)"
	stroke="rgb(40,92,77)"
	stroke-width="0.511649"
	d="M6.696208 8.359068 
	Q5.314756 6.843307 4.304249 4.611238 
	T3.114664 0.000000 
	H1.937871 
	Q1.982640 1.912289 2.878026 4.195523 
	T5.212426 8.135222 
	H0.626770 
	V9.248058 
	H6.696208 
	V8.359068 
	Z" />
</g>
<g transform="translate( 37.748322 14.000000 ) scale(1 -1)">
<path
	fill="rgb(40,92,77)"
	stroke="rgb(40,92,77)"
	stroke-width="0.511649"
	d="M4.911832 0.000000 
	H3.760621 
	V7.335770 
	Q2.897213 6.517131 1.451804 5.947921 
	V7.060758 
	Q3.440841 8.013705 4.163545 9.420740 
	H4.911832 
	V0.000000 
	Z" />
</g>
<g transform="translate( 45.544576 14.000000 ) scale(1 -1)">
<path
	fill="rgb(40,92,77)"
	stroke="rgb(40,92,77)"
	stroke-width="0.511649"
	d="M6.696208 8.359068 
	Q5.314756 6.843307 4.304249 4.611238 
	T3.114664 0.000000 
	H1.937871 
	Q1.982640 1.912289 2.878026 4.195523 
	T5.212426 8.135222 
	H0.626770 
	V9.248058 
	H6.696208 
	V8.359068 
	Z" />
</g>
<g transform="translate( 53.340830 14.000000 ) scale(1 -1)">
<path
	fill="rgb(40,92,77)"
	stroke="rgb(40,92,77)"
	stroke-width="0.511649"
	d="M4.962997 5.071722 
	Q6.721791 4.508908 6.721791 2.673367 
	Q6.721791 1.464596 5.858383 0.652353 
	T3.639105 -0.159890 
	Q2.270443 -0.159890 1.413431 0.658748 
	T0.550023 2.711741 
	Q0.550023 3.600731 1.029694 4.265875 
	T2.334399 5.071722 
	V5.097305 
	Q0.927364 5.532206 0.927364 6.996802 
	Q0.927364 8.032892 1.669255 8.723618 
	T3.613522 9.420740 
	Q4.835085 9.420740 5.583371 8.704431 
	T6.338054 6.971220 
	Q6.338054 5.589767 4.962997 5.097305 
	V5.071722 
	Z
	M3.639105 5.525811 
	Q4.285062 5.525811 4.719963 5.935130 
	T5.161261 6.971220 
	Q5.161261 7.604386 4.719963 8.039287 
	T3.626313 8.474189 
	Q2.967565 8.474189 2.539059 8.045683 
	T2.110553 7.035176 
	Q2.110553 6.338054 2.551850 5.935130 
	T3.639105 5.525811 
	Z
	M3.639105 0.786661 
	Q4.451348 0.786661 4.994975 1.311101 
	T5.538602 2.673367 
	Q5.538602 3.511192 4.982184 4.048424 
	T3.613522 4.585656 
	Q2.775697 4.585656 2.251256 4.035633 
	T1.726816 2.698949 
	Q1.726816 1.886706 2.264048 1.336683 
	T3.639105 0.786661 
	Z" />
</g>

</g>
</g></svg>