<svg xmlns="http://www.w3.org/2000/svg" xmlns:xlink="http://www.w3.org/1999/xlink" width="30" height="30" viewBox="0 0 30 30">
  <defs>
    <filter id="Path_17" x="0" y="0" width="30" height="30" filterUnits="userSpaceOnUse">
      <feOffset dy="3" input="SourceAlpha"/>
      <feGaussianBlur stdDeviation="1.5" result="blur"/>
      <feFlood flood-opacity="0.322"/>
      <feComposite operator="in" in2="blur"/>
      <feComposite in="SourceGraphic"/>
    </filter>
  </defs>
  <g id="Group_5" data-name="Group 5" transform="translate(24.5 21.5)">
    <g transform="matrix(1, 0, 0, 1, -24.5, -21.5)" filter="url(#Path_17)">
      <path id="Path_17-2" data-name="Path 17" d="M31.743,30.509,26.694,25.46A8.843,8.843,0,1,0,25.456,26.7L30.5,31.743a.874.874,0,1,0,1.239-1.234ZM19.85,26.939a7.091,7.091,0,1,1,7.093-7.089A7.1,7.1,0,0,1,19.85,26.939Z" transform="translate(-6.5 -9.5)" fill="#fff"/>
    </g>
    <path id="Path_85" data-name="Path 85" d="M115.944,111.348h-3.292v-3.292a.651.651,0,1,0-1.3,0v3.292H108.06a.651.651,0,0,0,0,1.3h3.292v3.292a.651.651,0,0,0,1.3,0v-3.292h3.292a.651.651,0,0,0,0-1.3Z" transform="translate(-123.208 -123.204)" fill="#fff"/>
  </g>
</svg>
