<?xml version="1.0" encoding="UTF-8"?>
<svg id="Livello_1" data-name="Livello 1" xmlns="http://www.w3.org/2000/svg" xmlns:xlink="http://www.w3.org/1999/xlink" viewBox="0 0 44 44">
  <defs>
    <style>
      .cls-1 {
        fill: none;
      }

      .cls-2 {
        clip-path: url(#clippath);
      }

      .cls-3 {
        fill: #04247b;
      }

      .cls-4 {
        fill: #fff;
      }

      .cls-5 {
        fill: #cd152a;
      }

      .cls-6 {
        clip-path: url(#clippath-1);
      }
    </style>
    <clipPath id="clippath">
      <circle class="cls-1" cx="22" cy="22" r="21.97"/>
    </clipPath>
    <clipPath id="clippath-1">
      <rect class="cls-1" x="-.5" y="-.5" width="45" height="45"/>
    </clipPath>
  </defs>
  <g class="cls-2">
    <g class="cls-6">
      <g>
        <polygon class="cls-3" points="-11.75 29.49 -11.75 39.49 3.24 29.49 -11.75 29.49"/>
        <polygon class="cls-3" points="16.38 -.5 -4.17 -.5 16.38 13.22 16.38 -.5"/>
        <polygon class="cls-3" points="-11.75 4.51 -11.75 14.51 3.24 14.51 -11.75 4.51"/>
        <polygon class="cls-3" points="55.75 14.51 55.75 4.51 40.76 14.51 55.75 14.51"/>
        <polygon class="cls-3" points="48.18 -.5 27.62 -.5 27.62 13.22 48.18 -.5"/>
        <polygon class="cls-3" points="55.75 39.49 55.75 29.49 40.76 29.49 55.75 39.49"/>
        <polygon class="cls-3" points="-4.18 44.5 16.38 44.5 16.38 30.78 -4.18 44.5"/>
        <polygon class="cls-3" points="27.62 44.5 48.18 44.5 27.62 30.78 27.62 44.5"/>
        <polygon class="cls-4" points="33.19 29.49 38.23 29.49 55.75 41.18 55.75 39.49 40.76 29.49 55.75 29.49 55.75 14.51 40.76 14.51 55.75 4.51 55.75 -.5 55.71 -.5 33.22 14.51 28.18 14.51 50.67 -.5 48.18 -.5 27.62 13.22 27.62 -.5 16.38 -.5 16.38 13.22 -4.17 -.5 -11.71 -.5 10.78 14.51 5.74 14.51 -11.75 2.84 -11.75 4.51 3.24 14.51 -11.75 14.51 -11.75 29.49 3.24 29.49 -11.75 39.49 -11.75 44.5 -11.75 44.5 10.75 29.49 15.79 29.49 -6.7 44.5 -4.18 44.5 16.38 30.78 16.38 44.5 27.62 44.5 27.62 30.78 48.18 44.5 55.68 44.5 33.19 29.49"/>
        <polygon class="cls-5" points="-11.75 2.84 5.74 14.51 10.78 14.51 -11.71 -.5 -11.75 -.5 -11.75 2.84"/>
        <polygon class="cls-5" points="33.19 29.49 55.68 44.5 55.75 44.5 55.75 41.18 38.23 29.49 33.19 29.49"/>
        <polygon class="cls-5" points="28.18 14.51 33.22 14.51 55.71 -.5 50.67 -.5 28.18 14.51"/>
        <polygon class="cls-5" points="15.79 29.49 10.75 29.49 -11.75 44.5 -6.7 44.5 15.79 29.49"/>
        <polygon class="cls-5" points="55.75 17.5 25.38 17.5 25.38 -.5 18.62 -.5 18.62 17.5 -11.75 17.5 -11.75 26.5 18.62 26.5 18.62 44.5 25.38 44.5 25.38 26.5 55.75 26.5 55.75 17.5"/>
      </g>
    </g>
  </g>
</svg>