<?xml version="1.0" encoding="UTF-8"?>
<svg id="Livello_1" data-name="Livello 1" xmlns="http://www.w3.org/2000/svg" xmlns:xlink="http://www.w3.org/1999/xlink" viewBox="0 0 44 44">
  <defs>
    <style>
      .cls-1 {
        fill: none;
      }

      .cls-2 {
        clip-path: url(#clippath);
      }

      .cls-3 {
        fill: #fdca17;
      }

      .cls-4 {
        fill: #063396;
      }
    </style>
    <clipPath id="clippath">
      <circle class="cls-1" cx="22" cy="22" r="21.97"/>
    </clipPath>
  </defs>
  <g class="cls-2">
    <rect class="cls-4" x="-.5" y="-.5" width="45" height="45"/>
  </g>
  <g>
    <g>
      <g>
        <polygon class="cls-3" points="17.11 28.99 17.48 30.12 18.66 30.12 17.7 30.81 18.07 31.94 17.11 31.25 16.15 31.94 16.52 30.81 15.56 30.12 16.74 30.12 17.11 28.99"/>
        <polygon class="cls-3" points="26.89 28.99 27.26 30.12 28.44 30.12 27.49 30.81 27.85 31.94 26.89 31.25 25.94 31.94 26.3 30.81 25.34 30.12 26.53 30.12 26.89 28.99"/>
      </g>
      <g>
        <polygon class="cls-3" points="17.11 12.06 17.48 13.18 18.66 13.18 17.7 13.88 18.07 15.01 17.11 14.31 16.15 15.01 16.52 13.88 15.56 13.18 16.74 13.18 17.11 12.06"/>
        <polygon class="cls-3" points="26.89 12.06 27.26 13.18 28.44 13.18 27.49 13.88 27.85 15.01 26.89 14.31 25.94 15.01 26.3 13.88 25.34 13.18 26.53 13.18 26.89 12.06"/>
      </g>
    </g>
    <g>
      <g>
        <polygon class="cls-3" points="30.47 15.63 30.84 16.76 32.02 16.76 31.06 17.46 31.43 18.58 30.47 17.88 29.51 18.58 29.88 17.46 28.92 16.76 30.1 16.76 30.47 15.63"/>
        <polygon class="cls-3" points="13.53 15.63 13.9 16.76 15.08 16.76 14.12 17.46 14.49 18.58 13.53 17.88 12.57 18.58 12.94 17.46 11.98 16.76 13.16 16.76 13.53 15.63"/>
      </g>
      <g>
        <polygon class="cls-3" points="30.47 25.41 30.84 26.54 32.02 26.54 31.06 27.24 31.43 28.36 30.47 27.67 29.51 28.36 29.88 27.24 28.92 26.54 30.1 26.54 30.47 25.41"/>
        <polygon class="cls-3" points="13.53 25.41 13.9 26.54 15.08 26.54 14.12 27.24 14.49 28.36 13.53 27.67 12.57 28.36 12.94 27.24 11.98 26.54 13.16 26.54 13.53 25.41"/>
      </g>
    </g>
    <g>
      <g>
        <polygon class="cls-3" points="22 10.74 22.36 11.87 23.55 11.87 22.59 12.57 22.95 13.69 22 13 21.04 13.69 21.4 12.57 20.45 11.87 21.63 11.87 22 10.74"/>
        <polygon class="cls-3" points="22 30.31 22.36 31.43 23.55 31.43 22.59 32.13 22.95 33.25 22 32.56 21.04 33.25 21.4 32.13 20.45 31.43 21.63 31.43 22 30.31"/>
      </g>
      <g>
        <polygon class="cls-3" points="31.78 20.52 32.14 21.64 33.33 21.64 32.37 22.34 32.74 23.47 31.78 22.77 30.82 23.47 31.19 22.34 30.23 21.64 31.41 21.64 31.78 20.52"/>
        <polygon class="cls-3" points="12.22 20.52 12.59 21.64 13.78 21.64 12.82 22.34 13.18 23.47 12.22 22.77 11.27 23.47 11.63 22.34 10.67 21.64 11.86 21.64 12.22 20.52"/>
      </g>
    </g>
  </g>
</svg>