<?xml version="1.0" encoding="UTF-8"?>
<svg id="Livello_1" data-name="Livello 1" xmlns="http://www.w3.org/2000/svg" viewBox="0 0 340.04 220.56">
  <defs>
    <style>
      .cls-1 {
        isolation: isolate;
      }

      .cls-2 {
        fill: #fff;
        stroke-width: 0px;
      }
    </style>
  </defs>
  <g id="by_pixartprinting" data-name="by pixartprinting" class="cls-1">
    <g class="cls-1">
      <path class="cls-2" d="M20.38,200.57c0,7.01-3.83,11.18-9.8,11.18-3.4,0-6.11-1.72-7.35-4.17l-.21,3.74H0v-31.39h3.44v13.24c1.33-2.24,3.91-3.78,7.14-3.78,5.98,0,9.8,4.17,9.8,11.18ZM16.94,200.57c0-4.99-2.54-8.17-6.75-8.17s-6.75,3.05-6.75,7.91v.52c0,4.86,2.67,7.91,6.75,7.91s6.75-3.18,6.75-8.17Z"/>
      <path class="cls-2" d="M34.61,214.93c-1.68,4.21-3.61,5.63-6.79,5.63-2.15,0-3.53-.52-4.73-1.81l1.2-2.92c.99,1.38,2.28,1.72,3.48,1.72,1.5,0,2.84-.65,3.91-3.48l1.12-2.79-8.99-21.46h3.91l5.38,14.02,1.33,3.83,1.55-4.26,5.03-13.59h3.7l-10.1,25.11Z"/>
      <path class="cls-2" d="M83.42,200.57c0,7.01-3.83,11.18-9.8,11.18-3.22,0-5.8-1.55-7.14-3.78v12.38h-3.44v-30.53h3.01l.22,3.74c1.25-2.45,3.96-4.17,7.35-4.17,5.98,0,9.8,4.17,9.8,11.18ZM79.98,200.57c0-4.99-2.54-8.17-6.75-8.17s-6.75,3.05-6.75,7.91v.52c0,4.86,2.67,7.91,6.75,7.91s6.75-3.18,6.75-8.17Z"/>
      <path class="cls-2" d="M89.27,183.11c0-1.55,1.03-2.58,2.58-2.58s2.58,1.03,2.58,2.58-1.03,2.58-2.58,2.58-2.58-1.03-2.58-2.58ZM93.57,211.32h-3.44v-21.5h3.44v21.5Z"/>
      <path class="cls-2" d="M114.85,211.32l-5.93-8.3-6.11,8.3h-4l8.26-10.84-7.74-10.66h4.3l5.68,7.96,5.59-7.96h4.04l-7.78,10.54,7.91,10.96h-4.21Z"/>
      <path class="cls-2" d="M143.36,208.61l-.21,2.71c-.6.21-1.51.43-2.58.43-2.11,0-3.48-.77-3.87-3.18-1.38,2.02-4.17,3.18-6.92,3.18-4.04,0-7.31-1.89-7.31-5.76,0-3.22,2.84-5.76,8.38-6.71l5.72-.95v-1.2c0-2.84-1.81-4.73-5.03-4.73-2.84,0-4.99,1.38-6.15,4.08l-2.54-1.85c1.12-3.18,4.52-5.25,8.69-5.25,4.9,0,8.47,2.32,8.47,7.31v10.58c0,1.03.43,1.55,1.63,1.55.56,0,1.2-.09,1.72-.21ZM136.57,204.09v-2.97l-4.82.9c-3.78.69-5.72,1.94-5.72,3.96,0,1.81,1.46,2.75,3.91,2.75,3.44,0,6.62-1.81,6.62-4.64Z"/>
      <path class="cls-2" d="M160.86,189.82l-.69,3.35c-.65-.34-1.59-.56-2.71-.56-2.58,0-5.68,2.28-5.68,7.1v11.61h-3.44v-21.5h2.79l.47,3.53c1.2-2.62,3.53-3.96,6.88-3.96.73,0,1.72.09,2.36.43Z"/>
      <path class="cls-2" d="M177.76,209.81c-1.33,1.2-3.18,1.93-5.55,1.93-3.18,0-5.93-1.59-5.98-5.76v-13.2h-4.3v-2.97h4.3v-5.16l3.44-.95v6.11h7.96v2.97h-7.96v12.6c0,2.11,1.33,3.14,3.23,3.14,1.55,0,2.67-.6,3.65-1.59l1.2,2.88Z"/>
      <path class="cls-2" d="M203,200.57c0,7.01-3.83,11.18-9.8,11.18-3.23,0-5.8-1.55-7.14-3.78v12.38h-3.44v-30.53h3.01l.21,3.74c1.25-2.45,3.96-4.17,7.35-4.17,5.98,0,9.8,4.17,9.8,11.18ZM199.56,200.57c0-4.99-2.54-8.17-6.75-8.17s-6.75,3.05-6.75,7.91v.52c0,4.86,2.67,7.91,6.75,7.91s6.75-3.18,6.75-8.17Z"/>
      <path class="cls-2" d="M222.22,189.82l-.69,3.35c-.64-.34-1.59-.56-2.71-.56-2.58,0-5.68,2.28-5.68,7.1v11.61h-3.44v-21.5h2.79l.47,3.53c1.2-2.62,3.53-3.96,6.88-3.96.73,0,1.72.09,2.37.43Z"/>
      <path class="cls-2" d="M226.39,183.11c0-1.55,1.03-2.58,2.58-2.58s2.58,1.03,2.58,2.58-1.03,2.58-2.58,2.58-2.58-1.03-2.58-2.58ZM230.69,211.32h-3.44v-21.5h3.44v21.5Z"/>
      <path class="cls-2" d="M257.52,197.56v13.76h-3.44v-12.56c0-4.77-2.32-6.36-5.29-6.36-3.14,0-6.67,1.98-6.67,7.48v11.44h-3.44v-21.5h3.01l.21,3.35c1.5-2.71,4.26-3.78,7.22-3.78,4.6,0,8.38,2.62,8.38,8.17Z"/>
      <path class="cls-2" d="M278.16,209.81c-1.33,1.2-3.18,1.93-5.55,1.93-3.18,0-5.93-1.59-5.98-5.76v-13.2h-4.3v-2.97h4.3v-5.16l3.44-.95v6.11h7.96v2.97h-7.96v12.6c0,2.11,1.33,3.14,3.22,3.14,1.55,0,2.67-.6,3.66-1.59l1.2,2.88Z"/>
      <path class="cls-2" d="M282.16,183.11c0-1.55,1.03-2.58,2.58-2.58s2.58,1.03,2.58,2.58-1.03,2.58-2.58,2.58-2.58-1.03-2.58-2.58ZM286.46,211.32h-3.44v-21.5h3.44v21.5Z"/>
      <path class="cls-2" d="M313.29,197.56v13.76h-3.44v-12.56c0-4.77-2.32-6.36-5.29-6.36-3.14,0-6.67,1.98-6.67,7.48v11.44h-3.44v-21.5h3.01l.21,3.35c1.5-2.71,4.26-3.78,7.22-3.78,4.6,0,8.39,2.62,8.39,8.17Z"/>
      <path class="cls-2" d="M339.56,213.68c0,4.26-4.82,6.88-10.62,6.88-6.79,0-9.89-2.45-9.89-5.68,0-1.98,1.42-3.53,3.78-4.17-1.63-.77-2.92-2.06-2.92-3.96,0-2.24,1.33-3.57,3.22-4.21-2.06-1.29-3.14-3.4-3.14-5.89,0-4.26,3.66-7.27,8.82-7.27,1.63,0,3.1.3,4.39.86.82-2.97,2.84-4.39,6.06-4.39l.77,3.01c-2.88,0-4.52.82-5.12,2.36,1.72,1.29,2.71,3.18,2.71,5.42,0,4.26-3.66,7.27-8.81,7.27-1.25,0-2.37-.13-3.31-.39-1.72.39-2.41,1.25-2.41,2.71s1.16,2.32,2.84,2.32h7.14c4.08,0,6.49,2.02,6.49,5.12ZM336.38,214.07c0-1.55-1.03-2.54-4.26-2.54h-5.76c-2.71,0-4.13,1.03-4.13,2.67,0,2.11,2.36,3.48,7.09,3.48s7.05-1.72,7.05-3.61ZM323.57,196.65c0,2.67,2.28,4.47,5.25,4.47s5.25-1.81,5.25-4.47-2.28-4.47-5.25-4.47-5.25,1.81-5.25,4.47Z"/>
    </g>
  </g>
  <g id="Group_7263" data-name="Group 7263">
    <path id="Exclusion_7" data-name="Exclusion 7" class="cls-2" d="M170.65,150.01c-8.74,0-17.46-.88-26.03-2.64-8.21-1.66-16.19-4.27-23.81-7.75-15.46-7.17-26.93-17.49-33.15-29.84-3.14-6.32-5.07-13.17-5.7-20.2-.65-7.15-.25-14.35,1.2-21.38,1.42-7.1,3.74-13.98,6.9-20.49,3.02-6.32,6.86-12.22,11.41-17.54,4.49-5.16,9.66-9.69,15.37-13.47,5.79-3.83,12-6.98,18.5-9.4,6.66-2.48,13.55-4.33,20.56-5.5C163.02.6,170.23,0,177.46,0c9.21,0,18.41.95,27.42,2.84,8.64,1.78,17.05,4.56,25.06,8.26,7.43,3.4,14.32,7.88,20.44,13.3,5.69,5.01,10.3,11.11,13.58,17.95,11.8,25.32.76,58-16.25,77.18-4.63,5.18-9.92,9.74-15.74,13.54-5.9,3.85-12.21,7.04-18.81,9.5-6.74,2.52-13.71,4.39-20.8,5.6-7.17,1.23-14.43,1.84-21.71,1.84ZM110.42,52.32c-.67,0-1.27.43-1.5,1.06l-.32.9c-.29.83.14,1.75.97,2.04.17.06.35.09.53.09,2.53-.21,4.74,1.67,4.95,4.2,0,.02,0,.04,0,.07-1.34.99-2.43,2.27-3.18,3.76-1.51,3.15-1.5,6.82,0,9.98.77,1.51,1.89,2.82,3.28,3.8-1.22.63-2.26,1.57-3.01,2.72-.72,1.12-1.1,2.42-1.09,3.74.01,2.04.98,3.96,2.61,5.19-2.78,1.37-4.56,4.18-4.6,7.28,0,6.18,6.4,10.17,16.3,10.17s16.18-4.29,16.18-10.68c0-5.24-4.79-8.63-12.21-8.63h-7.86c-3.83,0-6.21-1.32-6.21-3.45.09-1.09.73-2.05,1.7-2.55,1.29-.76,2.74-1.2,4.24-1.28,1.25.21,2.52.31,3.78.31,8.45,0,14.13-4.67,14.13-11.63.01-1.62-.33-3.22-1-4.7-.67-1.44-1.66-2.71-2.89-3.71-1.12-.92-2.38-1.64-3.75-2.13-2.08-.76-4.29-1.13-6.5-1.09-2.22-.02-4.42.35-6.51,1.09l.34-.19c-.91-3.86-4.43-6.52-8.39-6.34h0ZM232.33,90.18h0c.42,1.44,1.41,2.65,2.74,3.35.92.45,1.94.69,2.96.68,1.12.05,2.23-.24,3.19-.84.41-.27.68-.72.71-1.22l.06-.9c.04-.63-.29-1.22-.85-1.52-.23-.12-.49-.19-.75-.18-.36,0-.7.12-.98.33-.05.04-.35.24-1.45.24-.52,0-1.92,0-1.92-3v-17.39c0-7.6-4.66-11.96-12.79-11.96-7.04,0-11.55,2.89-13.78,8.84-.24.66-.03,1.4.53,1.82l.83.64c.7.54,1.71.4,2.24-.3.1-.13.18-.28.24-.44,1.62-4.54,4.6-6.48,9.94-6.48,3.91,0,8.57,1.37,8.57,7.86v2.63l-10.01,1.87c-6.46,1.19-13.07,3.41-13.07,10.84,0,5.64,4.43,9.15,11.57,9.15,2.13,0,4.26-.31,6.3-.92,2.11-.6,4.05-1.66,5.7-3.1h0ZM170.42,61.69h14.71v22.22c0,6.64,3.29,10.29,9.27,10.29,2.72.02,5.34-1.03,7.29-2.93.5-.53.59-1.32.21-1.94l-.52-.83c-.26-.43-.71-.71-1.21-.75-.05,0-.1,0-.15,0-.45,0-.87.19-1.18.52-1.13,1.25-2.77,1.93-4.45,1.85-2.62,0-5.05-.75-5.05-6.2v-22.22h10.74c.88,0,1.6-.72,1.6-1.6v-.89c0-.88-.72-1.6-1.6-1.6h-10.74v-7.83c0-.88-.72-1.6-1.6-1.6-.16,0-.32.03-.47.07l-1.02.32c-.67.21-1.12.82-1.12,1.52v7.51h-14.71v-10.9c0-4.59,2.15-7.22,5.89-7.22,1.24-.15,2.47.34,3.26,1.3.3.35.74.56,1.2.56.05,0,.11,0,.16,0,.52-.05.98-.34,1.24-.79l.45-.77c.35-.6.28-1.35-.19-1.87-1.54-1.73-3.8-2.66-6.11-2.52-6.23,0-10.1,4.33-10.1,11.31v10.9h-4.8c-.88,0-1.59.72-1.59,1.6v.89c0,.88.71,1.6,1.59,1.6h4.8v30.28c0,.88.72,1.6,1.6,1.6h1.03c.88,0,1.59-.72,1.59-1.6v-30.28h0ZM149.92,57.6c-.88,0-1.6.72-1.6,1.6v32.77c0,.88.72,1.6,1.6,1.6h1.03c.88,0,1.6-.72,1.6-1.6v-32.77c0-.88-.72-1.6-1.6-1.6h-1.03ZM150.43,48.52c-1.66,0-3.01,1.35-3.01,3.01s1.35,3.01,3.01,3.01,3.01-1.35,3.01-3.01h0c.04-1.62-1.25-2.97-2.87-3.01-.05,0-.1,0-.14,0h0ZM125.52,103.21c-7.3,0-12.21-2.49-12.21-6.2,0-2.9,3.21-4.92,7.8-4.92h8.19c4.89,0,8.05,1.83,8.05,4.67,0,3.68-5.09,6.46-11.83,6.46h0ZM220.66,90.11c-2.31,0-7.67-.49-7.67-5.05,0-2.63,1.23-5.3,10.14-6.93l8.72-1.63v5.81c0,5.32-6.68,7.8-11.19,7.8h0ZM125,76.94c-6.1,0-10.04-2.96-10.04-7.54s3.94-7.54,10.04-7.54,9.91,2.96,9.91,7.54-3.89,7.54-9.92,7.54h0Z"/>
  </g>
</svg>