<?xml version="1.0" encoding="UTF-8"?>
<svg id="Livello_1" data-name="Livello 1" xmlns="http://www.w3.org/2000/svg" viewBox="0 0 135 70">
  <defs>
    <style>
      .cls-1 {
        fill: #fff;
      }
    </style>
  </defs>
  <g>
    <path class="cls-1" d="m.61,66.7v-12.02h1.15v6.03l-.16,1.72.11,1.72v2.56H.61Zm4.39.08c-.74,0-1.41-.17-2.01-.51-.59-.34-1.06-.83-1.41-1.48s-.52-1.43-.52-2.35.18-1.71.53-2.36c.35-.64.82-1.13,1.42-1.47s1.26-.5,1.99-.5c.81,0,1.54.18,2.18.54.64.36,1.15.87,1.51,1.51.37.65.55,1.4.55,2.27s-.18,1.61-.55,2.26c-.37.65-.87,1.16-1.51,1.53-.64.37-1.37.55-2.18.55Zm-.08-1.02c.6,0,1.14-.14,1.62-.41.47-.28.85-.66,1.13-1.17.28-.5.42-1.08.42-1.74s-.14-1.25-.42-1.75c-.28-.5-.66-.88-1.13-1.16-.48-.28-1.02-.41-1.62-.41s-1.15.14-1.63.41-.86.66-1.13,1.16-.41,1.08-.41,1.75.14,1.24.41,1.74c.28.5.65.89,1.13,1.17s1.02.41,1.63.41Z"/>
    <path class="cls-1" d="m11.42,69.92c-.4,0-.78-.06-1.14-.19-.36-.13-.67-.32-.93-.58l.53-.86c.22.2.45.36.7.48s.54.17.85.17c.38,0,.7-.11.98-.32.28-.21.54-.58.79-1.11l.55-1.25.13-.18,3.5-7.89h1.13l-4.26,9.53c-.24.55-.5.99-.79,1.31-.29.32-.6.55-.93.69-.33.14-.71.2-1.12.2Zm2.27-2.98l-3.92-8.75h1.2l3.47,7.81-.75.94Z"/>
    <path class="cls-1" d="m24.37,69.84v-11.65h1.1v2.56l-.11,1.7.16,1.72v5.67h-1.15Zm4.39-3.06c-.73,0-1.4-.17-1.99-.51-.59-.34-1.07-.83-1.42-1.47-.35-.64-.53-1.43-.53-2.36s.17-1.71.52-2.36c.35-.64.82-1.13,1.41-1.47.59-.33,1.26-.5,2.01-.5.81,0,1.54.18,2.18.54.64.36,1.15.87,1.51,1.52.37.65.55,1.41.55,2.26s-.18,1.62-.55,2.27c-.37.65-.87,1.16-1.51,1.52-.64.37-1.37.55-2.18.55Zm-.08-1.02c.6,0,1.14-.14,1.62-.41.47-.28.85-.66,1.13-1.17.28-.5.42-1.08.42-1.74s-.14-1.24-.42-1.73c-.28-.5-.66-.89-1.13-1.17-.48-.28-1.02-.42-1.62-.42s-1.15.14-1.63.42c-.48.28-.86.67-1.13,1.17s-.41,1.07-.41,1.73.14,1.24.41,1.74c.28.5.65.89,1.13,1.17s1.02.41,1.63.41Z"/>
    <path class="cls-1" d="m35.94,56.31c-.24,0-.44-.08-.6-.24s-.24-.36-.24-.58.08-.42.24-.58.36-.23.6-.23.44.08.6.23c.16.15.24.34.24.57s-.08.44-.23.6-.36.24-.61.24Zm-.58,10.38v-8.5h1.15v8.5h-1.15Z"/>
    <path class="cls-1" d="m38.42,66.7l3.6-4.66-.02.57-3.42-4.41h1.3l2.8,3.65-.49-.02,2.8-3.63h1.26l-3.45,4.46.02-.62,3.63,4.66h-1.31l-2.97-3.89.45.07-2.92,3.82h-1.3Z"/>
    <path class="cls-1" d="m50.6,66.78c-.64,0-1.19-.11-1.66-.32s-.83-.5-1.08-.87-.37-.8-.37-1.29c0-.44.11-.84.32-1.21s.56-.65,1.04-.87,1.13-.33,1.94-.33h2.93v.86h-2.9c-.82,0-1.39.15-1.71.44-.32.29-.48.65-.48,1.09,0,.49.19.87.57,1.17s.91.44,1.59.44,1.21-.15,1.68-.44.81-.73,1.03-1.29l.26.79c-.22.56-.59,1.01-1.13,1.34-.53.33-1.21.5-2.02.5Zm2.93-.08v-1.88l-.05-.31v-3.14c0-.72-.2-1.28-.61-1.67-.4-.39-1.01-.58-1.81-.58-.55,0-1.07.09-1.57.28-.5.18-.92.43-1.26.73l-.52-.86c.43-.37.95-.65,1.55-.85s1.24-.3,1.91-.3c1.1,0,1.95.27,2.55.82s.9,1.37.9,2.49v5.28h-1.1Z"/>
    <path class="cls-1" d="m57.76,66.7v-8.5h1.1v2.32l-.11-.4c.24-.65.64-1.14,1.2-1.48.56-.34,1.26-.51,2.09-.51v1.12s-.09,0-.13,0c-.04,0-.09,0-.13,0-.9,0-1.6.27-2.11.82s-.76,1.32-.76,2.33v4.34h-1.15Z"/>
    <path class="cls-1" d="m63.17,59.15v-.96h5.27v.96h-5.27Zm4.02,7.63c-.8,0-1.41-.22-1.85-.65-.43-.43-.65-1.04-.65-1.83v-7.98h1.15v7.92c0,.5.13.88.38,1.15s.62.4,1.09.4c.51,0,.93-.15,1.26-.44l.4.83c-.23.21-.5.36-.82.45s-.65.15-.98.15Z"/>
    <path class="cls-1" d="m71.07,69.84v-11.65h1.1v2.56l-.11,1.7.16,1.72v5.67h-1.15Zm4.39-3.06c-.73,0-1.4-.17-1.99-.51-.59-.34-1.07-.83-1.42-1.47-.35-.64-.53-1.43-.53-2.36s.17-1.71.52-2.36c.35-.64.82-1.13,1.41-1.47.59-.33,1.26-.5,2.01-.5.81,0,1.54.18,2.18.54.64.36,1.15.87,1.51,1.52.37.65.55,1.41.55,2.26s-.18,1.62-.55,2.27c-.37.65-.87,1.16-1.51,1.52-.64.37-1.37.55-2.18.55Zm-.08-1.02c.6,0,1.14-.14,1.62-.41.47-.28.85-.66,1.13-1.17.28-.5.42-1.08.42-1.74s-.14-1.24-.42-1.73c-.28-.5-.66-.89-1.13-1.17-.48-.28-1.02-.42-1.62-.42s-1.15.14-1.63.42c-.48.28-.86.67-1.13,1.17s-.41,1.07-.41,1.73.14,1.24.41,1.74c.28.5.65.89,1.13,1.17s1.02.41,1.63.41Z"/>
    <path class="cls-1" d="m82.05,66.7v-8.5h1.1v2.32l-.11-.4c.24-.65.64-1.14,1.2-1.48.56-.34,1.26-.51,2.09-.51v1.12s-.09,0-.13,0c-.04,0-.09,0-.13,0-.9,0-1.6.27-2.11.82s-.76,1.32-.76,2.33v4.34h-1.15Z"/>
    <path class="cls-1" d="m89,56.31c-.24,0-.44-.08-.6-.24s-.24-.36-.24-.58.08-.42.24-.58.36-.23.6-.23.44.08.6.23c.16.15.24.34.24.57s-.08.44-.23.6-.36.24-.61.24Zm-.58,10.38v-8.5h1.15v8.5h-1.15Z"/>
    <path class="cls-1" d="m97.12,58.11c.69,0,1.3.13,1.82.4s.93.67,1.23,1.21c.3.54.44,1.22.44,2.04v4.94h-1.15v-4.83c0-.9-.22-1.57-.67-2.03s-1.08-.69-1.89-.69c-.61,0-1.13.12-1.58.36-.45.24-.79.59-1.04,1.05-.24.46-.36,1.01-.36,1.66v4.47h-1.15v-8.5h1.1v2.33l-.18-.44c.27-.62.7-1.1,1.3-1.45.59-.35,1.3-.53,2.12-.53Z"/>
    <path class="cls-1" d="m102.4,59.15v-.96h5.27v.96h-5.27Zm4.02,7.63c-.8,0-1.41-.22-1.85-.65-.43-.43-.65-1.04-.65-1.83v-7.98h1.15v7.92c0,.5.13.88.38,1.15s.62.4,1.09.4c.51,0,.93-.15,1.26-.44l.4.83c-.23.21-.5.36-.82.45s-.65.15-.98.15Z"/>
    <path class="cls-1" d="m110.89,56.31c-.24,0-.44-.08-.6-.24s-.24-.36-.24-.58.08-.42.24-.58.36-.23.6-.23.44.08.6.23c.16.15.24.34.24.57s-.08.44-.23.6-.36.24-.61.24Zm-.58,10.38v-8.5h1.15v8.5h-1.15Z"/>
    <path class="cls-1" d="m119,58.11c.69,0,1.3.13,1.82.4s.93.67,1.23,1.21c.3.54.44,1.22.44,2.04v4.94h-1.15v-4.83c0-.9-.22-1.57-.67-2.03s-1.08-.69-1.89-.69c-.61,0-1.13.12-1.58.36-.45.24-.79.59-1.04,1.05-.24.46-.36,1.01-.36,1.66v4.47h-1.15v-8.5h1.1v2.33l-.18-.44c.27-.62.7-1.1,1.3-1.45.59-.35,1.3-.53,2.12-.53Z"/>
    <path class="cls-1" d="m129.03,66.37c-.81,0-1.54-.18-2.19-.53-.65-.35-1.16-.84-1.53-1.47-.37-.63-.56-1.34-.56-2.15s.19-1.52.56-2.15c.37-.62.88-1.1,1.53-1.45s1.38-.52,2.19-.52c.76,0,1.44.16,2.04.47.61.31,1.09.78,1.44,1.39.36.61.53,1.37.53,2.25s-.18,1.64-.53,2.25-.84,1.08-1.44,1.41-1.28.49-2.04.49Zm.21,3.55c-.78,0-1.52-.11-2.24-.34-.71-.23-1.29-.55-1.73-.97l.58-.88c.4.36.89.64,1.48.85.59.21,1.21.32,1.87.32,1.08,0,1.87-.25,2.38-.75.51-.5.76-1.28.76-2.34v-2.12l.16-1.46-.11-1.46v-2.58h1.1v7.47c0,1.47-.36,2.55-1.08,3.23-.72.69-1.78,1.03-3.18,1.03Zm-.1-4.57c.63,0,1.18-.13,1.67-.4.49-.26.87-.63,1.15-1.1s.42-1.01.42-1.63-.14-1.16-.42-1.62-.66-.83-1.15-1.09c-.49-.26-1.04-.4-1.67-.4s-1.17.13-1.66.4c-.49.27-.87.63-1.15,1.09-.28.46-.41,1-.41,1.62s.14,1.16.41,1.63c.28.47.66.84,1.15,1.1s1.04.4,1.66.4Z"/>
  </g>
  <g>
    <path class="cls-1" d="m12.26,41.53H.52V0h11.75v41.53Zm16.85-16.2H11.43v-9.73h17.68v9.73Zm-.83-25.34h11.75v41.53h-11.75V0Z"/>
    <path class="cls-1" d="m67.5,42.36c-6.13,0-10.92-1.68-14.36-5.04-3.44-3.36-5.16-8.13-5.16-14.3V0h11.75v22.66c0,3.56.7,6.11,2.11,7.65,1.4,1.54,3.33,2.31,5.78,2.31s4.37-.77,5.76-2.31c1.38-1.54,2.08-4.09,2.08-7.65V0h11.57v23.02c0,6.17-1.72,10.94-5.16,14.3-3.44,3.36-8.23,5.04-14.36,5.04Z"/>
    <path class="cls-1" d="m94.97,41.53V0h21.24c5.46,0,9.53,1,12.22,3,2.69,2,4.03,4.62,4.03,7.86,0,2.14-.56,4.01-1.69,5.61-1.13,1.6-2.71,2.87-4.75,3.8s-4.46,1.39-7.27,1.39l1.19-2.85c2.93,0,5.48.44,7.65,1.33s3.87,2.18,5.07,3.86c1.21,1.68,1.81,3.73,1.81,6.14,0,3.6-1.45,6.4-4.36,8.4-2.91,2-7.15,3-12.73,3h-22.43Zm11.63-8.48h9.85c2.02,0,3.55-.35,4.6-1.04,1.05-.69,1.57-1.75,1.57-3.17s-.53-2.48-1.57-3.17c-1.05-.69-2.58-1.04-4.6-1.04h-10.68v-8.13h8.9c1.98,0,3.46-.33,4.45-1.01.99-.67,1.48-1.68,1.48-3.03s-.5-2.34-1.48-3c-.99-.65-2.47-.98-4.45-.98h-8.07v24.56Z"/>
  </g>
</svg>