<?xml version="1.0" encoding="UTF-8"?>
<svg id="it" xmlns="http://www.w3.org/2000/svg" viewBox="0 0 1077.17 198.43">
  <defs>
    <style>
      .cls-1 {
        fill: #fff;
      }
    </style>
  </defs>
  <path class="cls-1" d="m78.35,51.37c7.84,6.68,11.76,16.14,11.76,28.39s-3.92,22.52-11.76,29.47c-7.84,6.95-18.93,10.43-33.27,10.43H13.79v37.42H2.36V41.35h42.71c14.35,0,25.44,3.34,33.27,10.02Zm-8.19,50.49c6.01-5.02,9.02-12.28,9.02-21.77s-2.98-16.33-8.94-21.19c-5.96-4.86-14.51-7.28-25.66-7.28H13.79v57.78h30.79c11.04,0,19.56-2.51,25.58-7.53Z"/>
  <path class="cls-1" d="m129.51,41.35h11.42v115.72h-11.42V41.35Z"/>
  <path class="cls-1" d="m182.65,41.35h13.41l33.27,46.69,33.28-46.69h13.41l-39.57,55.63,42.88,60.1h-13.74l-36.26-50.66-36.26,50.66h-13.41l42.71-59.77-39.73-55.96Z"/>
  <path class="cls-1" d="m405.81,157.07l-13.74-30.79h-64.23l-13.58,30.79h-12.25l52.15-115.72h11.92l52.15,115.72h-12.42Zm-73.51-41.06h55.29l-27.81-62.58-27.48,62.58Z"/>
  <path class="cls-1" d="m530.14,157.07l-25-37.75c-3.53.22-6.24.33-8.11.33h-31.79v37.42h-11.42V41.35h43.21c14.46,0,25.63,3.34,33.52,10.02,7.89,6.68,11.84,16.14,11.84,28.39,0,9.6-2.32,17.61-6.95,24.01-4.64,6.4-11.26,10.87-19.87,13.41l27.81,39.9h-13.25Zm-33.11-47.68c11.04,0,19.53-2.51,25.49-7.53,5.96-5.02,8.94-12.28,8.94-21.77s-2.98-16.33-8.94-21.19c-5.96-4.86-14.46-7.28-25.49-7.28h-31.79v57.78h31.79Z"/>
  <path class="cls-1" d="m573.68,41.19h87.91v10.43h-38.24v105.46h-11.42V51.62h-38.24v-10.43Z"/>
  <path class="cls-1" d="m776.64,51.7c8.17,7.12,12.25,17.13,12.25,30.05,0,13.69-4.08,24.31-12.25,31.87-8.17,7.56-19.65,11.34-34.43,11.34h-20.69v32.12h-30.3V41.02h50.99c14.79,0,26.27,3.56,34.43,10.68Zm-21.61,44.45c3.37-3.09,5.05-7.56,5.05-13.41s-1.69-9.96-5.05-13c-3.37-3.03-8.14-4.55-14.32-4.55h-19.2v35.59h19.2c6.18,0,10.95-1.54,14.32-4.64Z"/>
  <path class="cls-1" d="m890.05,157.07l-16.89-32.12h-22.52v32.12h-30.3V41.02h52.15c15.34,0,27.23,3.56,35.68,10.68,8.44,7.12,12.66,17.13,12.66,30.05,0,8.72-1.77,16.25-5.3,22.6-3.53,6.35-8.66,11.29-15.39,14.82l24.17,37.91h-34.27Zm-39.41-56.29h22.02c6.18,0,10.96-1.54,14.32-4.64,3.37-3.09,5.05-7.56,5.05-13.41s-1.69-9.96-5.05-13c-3.37-3.03-8.14-4.55-14.32-4.55h-22.02v35.59Z"/>
  <path class="cls-1" d="m1044.09,46.98c9.54,5.19,17.05,12.31,22.51,21.36,5.46,9.05,8.2,19.2,8.2,30.46s-2.73,21.63-8.2,30.79c-5.46,9.16-12.97,16.39-22.51,21.69-9.55,5.3-20.23,7.95-32.03,7.95s-22.49-2.62-32.03-7.86c-9.55-5.24-17.05-12.47-22.52-21.69-5.46-9.21-8.19-19.51-8.19-30.88s2.73-21.41,8.19-30.46c5.46-9.05,12.97-16.17,22.52-21.36,9.54-5.19,20.22-7.78,32.03-7.78s22.49,2.59,32.03,7.78Zm-47.68,22.35c-4.91,2.98-8.8,7.09-11.67,12.33-2.87,5.24-4.3,11.01-4.3,17.3s1.46,12.23,4.39,17.47c2.93,5.24,6.81,9.38,11.67,12.42,4.85,3.04,10.15,4.55,15.89,4.55s11.01-1.52,15.81-4.55c4.8-3.03,8.58-7.17,11.34-12.42,2.76-5.24,4.14-11.06,4.14-17.47s-1.38-12.06-4.14-17.3c-2.76-5.24-6.54-9.35-11.34-12.33-4.8-2.98-10.07-4.47-15.81-4.47s-11.07,1.49-15.98,4.47Z"/>
</svg>