<?xml version="1.0" encoding="UTF-8"?>
<svg id="_logo" data-name="+logo" xmlns="http://www.w3.org/2000/svg" viewBox="0 0 184.96 70">
  <defs>
    <style>
      .cls-1 {
        fill: #fff;
      }
    </style>
  </defs>
  <path class="cls-1" d="m37.59,17.2c2.79,1.69,4.96,4.09,6.51,7.21,1.54,3.11,2.32,6.7,2.32,10.77s-.75,7.55-2.24,10.59c-1.5,3.04-3.63,5.39-6.4,7.06-2.77,1.67-5.97,2.5-9.6,2.5-2.5,0-4.77-.48-6.8-1.43-2.03-.96-3.76-2.34-5.18-4.16v5.15H3.09V.33h13.09v19.93c2.89-3.73,6.79-5.59,11.69-5.59,3.68,0,6.91.85,9.71,2.54Zm-6.73,24.82c1.59-1.81,2.39-4.19,2.39-7.13s-.8-5.33-2.39-7.17c-1.59-1.84-3.67-2.76-6.21-2.76s-4.54.92-6.1,2.76c-1.57,1.84-2.35,4.23-2.35,7.17s.78,5.32,2.35,7.13c1.57,1.81,3.6,2.72,6.1,2.72s4.62-.91,6.21-2.72Z"/>
  <path class="cls-1" d="m53.54.33h13.09v54.57h-13.09V.33Z"/>
  <path class="cls-1" d="m106.86,17.2c3.28,1.69,5.83,4.07,7.65,7.13,1.81,3.06,2.72,6.61,2.72,10.63s-.91,7.64-2.72,10.7c-1.81,3.06-4.36,5.44-7.65,7.13-3.29,1.69-7.09,2.54-11.4,2.54s-8.11-.85-11.4-2.54c-3.29-1.69-5.82-4.07-7.61-7.13-1.79-3.06-2.68-6.63-2.68-10.7s.89-7.56,2.68-10.63c1.79-3.06,4.33-5.44,7.61-7.13,3.28-1.69,7.08-2.54,11.4-2.54s8.11.85,11.4,2.54Zm-17.58,10.77c-1.57,1.81-2.35,4.19-2.35,7.13s.78,5.39,2.35,7.21c1.57,1.81,3.63,2.72,6.18,2.72s4.68-.91,6.25-2.72c1.57-1.81,2.35-4.22,2.35-7.21s-.8-5.32-2.39-7.13c-1.59-1.81-3.67-2.72-6.21-2.72s-4.61.91-6.18,2.72Z"/>
  <path class="cls-1" d="m162.01,15.11v36.26c0,3.68-.91,6.9-2.72,9.67-1.81,2.77-4.35,4.9-7.61,6.4-3.26,1.5-7.02,2.24-11.29,2.24-3.33,0-6.54-.47-9.63-1.4-3.09-.93-5.81-2.18-8.16-3.75l4.56-9.05c1.81,1.22,3.77,2.18,5.88,2.87,2.11.69,4.24,1.03,6.4,1.03,2.94,0,5.27-.69,6.99-2.06,1.72-1.37,2.57-3.24,2.57-5.59v-4.27c-2.65,3.48-6.42,5.22-11.33,5.22-3.29,0-6.21-.8-8.79-2.39-2.57-1.59-4.58-3.85-6.03-6.77-1.45-2.92-2.17-6.26-2.17-10.04s.7-7.01,2.1-9.85c1.4-2.84,3.37-5.05,5.92-6.62,2.55-1.57,5.44-2.35,8.68-2.35,2.45,0,4.67.45,6.66,1.36,1.99.91,3.64,2.22,4.96,3.93v-4.85h13.02Zm-15.22,25.45c1.47-1.72,2.21-3.95,2.21-6.69s-.74-5.05-2.21-6.77c-1.47-1.72-3.41-2.57-5.81-2.57s-4.35.87-5.85,2.61c-1.5,1.74-2.24,3.98-2.24,6.73s.75,4.98,2.24,6.69c1.5,1.72,3.44,2.57,5.85,2.57s4.34-.86,5.81-2.57Z"/>
  <path class="cls-1" d="m180.1,44.52c1.18,1.18,1.77,2.7,1.77,4.56s-.59,3.4-1.77,4.6c-1.18,1.2-2.7,1.8-4.56,1.8s-3.31-.6-4.49-1.8c-1.18-1.2-1.76-2.73-1.76-4.6s.58-3.38,1.73-4.56c1.15-1.18,2.66-1.77,4.52-1.77s3.38.59,4.56,1.77Z"/>
</svg>