<?xml version="1.0" encoding="utf-8"?>
<!-- Generator: Adobe Illustrator 23.0.3, SVG Export Plug-In . SVG Version: 6.00 Build 0)  -->
<svg version="1.1" id="Livello_1" xmlns="http://www.w3.org/2000/svg" xmlns:xlink="http://www.w3.org/1999/xlink" x="0px" y="0px"
	 viewBox="0 0 150 150" style="enable-background:new 0 0 150 150;" xml:space="preserve">
<style type="text/css">
	.st0{fill:#0B77C4;stroke:#FFFFFF;stroke-width:0.25;stroke-miterlimit:10;}
</style>
<g>
	<g>
		<path class="st0" d="M108.2,5.7c-11.8,0-21.4,9.6-21.4,21.4s9.6,21.4,21.4,21.4s21.4-9.6,21.4-21.4C129.6,15.3,120,5.7,108.2,5.7z
			 M108.2,43.2c-8.9,0-16.1-7.2-16.1-16.1S99.3,11,108.2,11s16.1,7.2,16.1,16.1S117.1,43.2,108.2,43.2z"/>
	</g>
	<path class="st0" d="M41.5,50.8c-12.3,0-22.2-10-22.2-22.2s10-22.2,22.2-22.2s22.2,10,22.2,22.2C63.7,40.9,53.8,50.8,41.5,50.8z
		 M41.5,11.6c-9.4,0-17,7.6-17,17s7.6,17,17,17s17-7.6,17-17S50.8,11.6,41.5,11.6z"/>
	<path class="st0" d="M145.4,118V72.6c0-10.3-8.7-19.2-19.7-19.2l0,0H90.9c-8.2,0-15.3,5-18.2,12c-0.8-1.6-1.8-3-3.1-4.3
		c-3.1-3.1-7.3-4.8-11.7-4.8l0,0H24.7c-11.4,0-21,8.3-21,18.1v30.8c0,5.7,5,10.7,10.9,10.8c0.9,0,2.1,0,3.6,0v28.5h5.3V116
		c9.9,0.1,24.5,0,32.9,0l-1.3,4.3c-0.3,0.8-0.1,1.6,0.4,2.3c0.5,0.7,1.3,1,2.1,1h6.1v20.9H69v-20.9h11.3c0.5,3.3,2.7,6.1,5.7,7.4
		v13.5h5.3v-12.4l0,0c3.8,0,7.1-2.7,7.8-6.5l1.4-7.5c0.6-3.2-1.4-6.3-4.5-7l11.8-36.9c0.3-0.8,0.1-1.7-0.4-2.4
		c-0.5-0.7-1.3-1.2-2.1-1.2H76.7c1-6.7,7-11.9,14.2-11.9h34.8c7.9,0,14.4,6.3,14.4,13.8V118c0,3.7-1.5,7.1-4.2,9.8
		c-2.1,2-4.7,3.4-7.5,3.9V86.6h-5.3v57.9h5.4V137c4.2-0.6,8.1-2.4,11.2-5.4C143.4,127.9,145.4,123.1,145.4,118z M14.7,110.7
		c-3-0.1-5.7-2.8-5.7-5.6V74.3c0-6.9,7.2-12.8,15.7-12.8h33.2l0,0c3,0,5.5,1.4,7.9,3.3c3.6,2.8,3.5,9.2,3.9,9.6L65.1,89l-6.5-6.5
		c-1-1-2.7-1-3.8,0c-1,1-1,2.7,0,3.8l5.2,5.2H24.9v-16c0,0,0-0.1,0-0.2c-0.1-1.4-1.2-2.5-2.6-2.5c-1.5,0-2.7,1.2-2.7,2.7v18.6
		c0,1.5,1.2,2.8,2.7,2.8c0,0,40.4,0.2,40.2,0l-4.4,13.8C47.3,110.7,21.2,110.9,14.7,110.7z M95.3,117.1l-1.4,7.5
		c-0.3,1.4-1.6,2.4-3.1,2.1l-1.7-0.3c-2.4-0.4-4-2.8-3.5-5.2l0.4-2c0.4-2.2,2.2-3.7,4.4-3.7c0.3,0,4.3,0.7,4.3,0.7
		C95.1,116.3,95.4,116.7,95.3,117.1z M101.7,76l-10.8,34.1c-0.2,0-0.4,0-0.5,0c-4.7,0-8.7,3.4-9.6,8.1l-0.1,0.5H61.3L74.8,76H101.7z
		"/>
</g>
</svg>
