<?xml version="1.0" encoding="UTF-8"?>
<svg id="Livello_1" data-name="Livello 1" xmlns="http://www.w3.org/2000/svg" viewBox="0 0 312.59 70">
  <defs>
    <style>
      .cls-1 {
        fill: #fff;
      }
    </style>
  </defs>
  <g>
    <path class="cls-1" d="m256.45,22.24c-1.44,3.28-2.93,6.63-4.24,9.6l-.05.1c-2.43,5.49-4.94,11.16-7.38,16.79-.31.74-1.01,1.2-1.81,1.2s-1.47-.42-1.84-1.1v-.03s-9.69-19.73-9.69-19.73l-9.67,19.72c-.32.7-1.05,1.15-1.84,1.15s-1.52-.46-1.83-1.2c-2.77-6.41-5.62-12.86-8.37-19.11l-.16-.36c-1.03-2.33-2.06-4.67-3.08-7-.28-.64-.23-1.33.14-1.89s1.02-.9,1.69-.9c.8,0,1.5.47,1.82,1.23l9.88,22.53,9.55-19.34c.34-.71,1.08-1.17,1.91-1.17.77,0,1.46.39,1.83,1.05l.04.07,9.56,19.38,9.84-22.54c.32-.75,1.02-1.22,1.83-1.22.68,0,1.34.35,1.72.91.36.55.41,1.24.15,1.87Z"/>
    <path class="cls-1" d="m285.62,47.06l-13.62-26.78c-.34-.68-.99-1.09-1.74-1.09s-1.44.42-1.77,1.08l-13.59,26.8c-.32.64-.29,1.34.07,1.93.37.59,1.03.96,1.72.96s1.36-.4,1.72-1.07l3.45-6.87h16.8l3.46,6.89c.35.66.99,1.05,1.71,1.05s1.35-.37,1.72-.96c.36-.58.38-1.29.06-1.94Zm-21.84-8.85l6.48-12.83,6.45,12.83h-12.93Z"/>
    <path class="cls-1" d="m311.02,22.85l-11.16,14.91v10c0,1.3-1.02,2.08-1.99,2.08-1.16,0-1.99-.88-1.99-2.08v-10l-11.22-14.93c-.53-.65-.67-1.47-.34-2.18.31-.66.96-1.08,1.71-1.08.6,0,1.19.27,1.63.77l.08.09,10.12,13.59,10.17-13.68c.45-.5,1.03-.77,1.63-.77.76,0,1.44.44,1.74,1.11.32.71.18,1.52-.39,2.17Z"/>
  </g>
  <path class="cls-1" d="m71.19,10.25C64.59,3.64,55.79,0,46.45,0c-5.86,0-11.52,1.43-16.54,4.13,1.42,1.19,2.66,2.6,3.64,4.18,3.98-1.95,8.36-2.96,12.91-2.96,7.92,0,15.36,3.08,20.96,8.69,5.59,5.59,8.68,13.03,8.68,20.95s-3.08,15.37-8.68,20.96c-5.6,5.6-13.04,8.69-20.96,8.69s-15.36-3.08-20.96-8.69c-5.56-5.56-8.65-12.97-8.68-20.83v-.13c0-.92.04-1.85.14-2.76.62-6.88,3.6-13.25,8.54-18.19,1.68-1.68,3.54-3.14,5.52-4.35-.97-1.56-2.25-2.91-3.73-4-1.99,1.3-3.86,2.83-5.58,4.55-5.71,5.71-9.2,13.04-10.05,20.96-.03.16-.04.3-.05.46-.04.4-.07.81-.09,1.22-.02.18-.03.35-.04.53-.02.53-.03,1.05-.03,1.58,0,9.36,3.64,18.14,10.25,24.75,6.6,6.6,15.4,10.25,24.74,10.25s18.14-3.65,24.74-10.25c6.61-6.61,10.25-15.4,10.25-24.75s-3.64-18.13-10.25-24.74Z"/>
  <g>
    <path class="cls-1" d="m118.77,40.84c0,6.34-6.6,8.6-12.79,8.6-1.6,0-4.69-.16-7.52-1.25-2.93-1.14-4.76-2.94-5.42-5.35-.13-.39-.06-.79.18-1.11.24-.33.63-.53,1.05-.53.58,0,1.06.38,1.24.96.86,2.98,4.96,4.39,8.51,4.73.61.08,1.31.12,1.95.12,1.18,0,4.17-.13,6.7-1.32,2.29-1.09,3.44-2.7,3.44-4.8,0-1.86-.91-3.06-2.87-3.81-1.89-.71-4.44-.91-7.14-1.13-5.89-.48-12.55-1-12.55-7.58,0-2.12.93-3.91,2.76-5.33,1.77-1.36,3.95-2.03,5.46-2.36,1.26-.23,2.54-.35,3.73-.35,1.83,0,4.51.18,6.94,1.06,2.69.97,4.45,2.56,5.25,4.72.25.62.06,1.06-.08,1.27-.22.33-.6.53-1.02.53-.57,0-1.07-.36-1.26-.91-.99-2.76-4.29-4.16-9.79-4.16-.16,0-.31,0-.48.02-.18.02-.36.03-.53.03-3.12.21-7.11,1.47-8.06,4.28l-.03.07c-.16.3-.24.74-.24,1.19,0,1.86.92,3.08,2.92,3.83,1.92.74,4.49.95,7.23,1.19,2.94.25,5.96.51,8.29,1.46,2.77,1.13,4.12,3.08,4.12,5.95Z"/>
    <path class="cls-1" d="m146.63,21.83c0,.61-.49,1.26-1.39,1.26h-10.45l.05,24.67c0,.89-.71,1.43-1.39,1.43s-1.34-.5-1.34-1.43v-24.67h-10.41c-.89,0-1.38-.65-1.38-1.26s.49-1.25,1.38-1.25h23.54c.9,0,1.39.65,1.39,1.25Z"/>
    <path class="cls-1" d="m173.94,47.35l-13.63-26.78c-.22-.47-.65-.73-1.15-.73s-.97.28-1.19.73l-13.59,26.79c-.22.43-.2.9.04,1.29.24.4.69.65,1.17.65s.89-.26,1.14-.71l3.63-7.23h17.6l3.64,7.24c.23.44.65.7,1.13.7s.92-.25,1.17-.65c.24-.39.26-.87.04-1.3Zm-22.31-8.49l7.54-14.93,7.5,14.93h-15.04Z"/>
    <path class="cls-1" d="m194.58,38.88c5.48-.8,8.61-4,8.61-8.8,0-2.65-1.05-5.03-2.95-6.71-2.05-1.83-5.02-2.79-8.57-2.79h-10.77c-.76,0-1.34.57-1.34,1.34v25.93c0,.39.16.73.44.96.23.2.54.32.88.32.65,0,1.33-.47,1.33-1.32v-8.83h9.11l9.44,9.95c.34.34.7.42.94.42.5,0,.94-.3,1.15-.77.21-.5.1-1.06-.32-1.5l-7.96-8.2Zm-12.37-15.75h9.51c2.65,0,4.88.71,6.48,2.06,1.46,1.24,2.28,2.99,2.3,4.89.04,1.62-.49,3.04-1.53,4.1-1.49,1.52-3.99,2.31-7.25,2.31h-9.51v-13.37Z"/>
  </g>
  <path class="cls-1" d="m36.18,17.59c0,9.7-7.99,17.59-17.68,17.59-.46,0-1.31-.02-1.69-.05v-.13c0-.92.04-1.85.14-2.76.52.06,1.08.09,1.6.09,8.13,0,14.76-6.61,14.76-14.74,0-2.91-.85-5.61-2.31-7.89-.97-1.56-2.25-2.91-3.73-4-2.43-1.79-5.45-2.85-8.7-2.85-8.12,0-14.73,6.61-14.73,14.74,0,5.64,3.18,10.55,7.85,13.02-.03.2-.05.4-.06.6-.03.16-.04.3-.05.46-.05.41-.08.81-.09,1.22-.02.18-.03.35-.04.53,0,.08,0,.17,0,.24C5.31,30.92,1.01,24.74,1.01,17.59,1.01,7.89,8.9,0,18.6,0c4.3,0,8.24,1.56,11.3,4.13,1.42,1.19,2.66,2.6,3.64,4.18,1.67,2.69,2.65,5.87,2.65,9.27Z"/>
</svg>